<svg width="47" height="34" viewBox="0 0 47 34" fill="none" xmlns="http://www.w3.org/2000/svg">
<path fill-rule="evenodd" clip-rule="evenodd" d="M33.6677 24.9612C33.8497 29.0833 30.5228 32.5691 26.2376 32.7443C25.9219 32.7576 10.5341 32.7265 10.5341 32.7265C6.26961 33.0503 2.53728 29.9858 2.20091 25.8792C2.17557 25.5732 2.18248 9.06243 2.18248 9.06243C1.99356 4.93585 5.31579 1.44122 9.60336 1.2594C9.92361 1.24387 25.2907 1.2727 25.2907 1.2727C29.5759 0.953395 33.3198 4.04002 33.6516 8.1666C33.6746 8.46373 33.6677 24.9612 33.6677 24.9612Z" stroke="#C51D38" stroke-width="2.5" stroke-linecap="round" stroke-linejoin="round"/>
<path d="M33.6748 12.4546L41.0841 6.39088C42.9201 4.88788 45.6741 6.19738 45.6718 8.56663L45.6448 25.1019C45.6426 27.4711 42.8863 28.7694 41.0548 27.2664L33.6748 21.2026" stroke="#C51D38" stroke-width="2.5" stroke-linecap="round" stroke-linejoin="round"/>
</svg>
