<svg width="51" height="45" viewBox="0 0 51 45" fill="none" xmlns="http://www.w3.org/2000/svg">
<path d="M12.4727 0.412599C13.664 0.280118 14.9002 0.630743 15.8365 1.3808C16.8406 2.17369 17.493 3.3969 17.5747 4.67588C17.6703 5.93893 17.2111 7.22986 16.3405 8.15125C15.456 9.10949 14.1481 9.65635 12.8442 9.61053C11.378 9.58264 9.95855 8.79473 9.14674 7.5765C8.33193 6.38916 8.1357 4.81234 8.62279 3.45865C9.18658 1.81908 10.7455 0.581935 12.4727 0.412599ZM12.5813 2.02029C11.9995 2.096 11.4417 2.34502 11.0025 2.7335C9.94162 3.61803 9.65275 5.26656 10.347 6.45988C10.9955 7.67014 12.5305 8.29867 13.8393 7.87633C15.2618 7.47789 16.222 5.92498 15.9311 4.47367C15.6941 2.9367 14.1202 1.78024 12.5813 2.02029Z" fill="#C51D38"/>
<path d="M37.205 0.459411C38.4751 0.226325 39.8397 0.551052 40.8547 1.3539C41.8777 2.14181 42.5431 3.37597 42.6278 4.66592C42.7194 5.85127 42.326 7.06351 41.556 7.96896C40.7242 8.97004 39.4532 9.58562 38.1513 9.61052C36.6831 9.66332 35.2178 8.95111 34.3423 7.77373C33.4627 6.62822 33.1858 5.05838 33.6052 3.67879C34.0773 2.0432 35.5266 0.74529 37.205 0.459411ZM37.6752 2.01531C37.2588 2.06412 36.8534 2.19959 36.4938 2.41474C35.2786 3.10802 34.6999 4.70277 35.1979 6.01263C35.6641 7.3972 37.2359 8.27775 38.6613 7.93609C40.1654 7.64722 41.2601 6.0734 40.9992 4.56133C40.8079 2.99945 39.2351 1.79218 37.6752 2.01531Z" fill="#C51D38"/>
<path d="M9.3324 11.3158C11.4969 10.3895 14.014 10.3406 16.2174 11.1634C18.1448 11.8677 19.8043 13.2423 20.898 14.9745C21.8832 13.3349 23.7778 12.286 25.6952 12.3806C27.4822 12.4235 29.1826 13.4475 30.101 14.9735C31.4258 12.8608 33.6132 11.3039 36.0586 10.7909C38.2161 10.3217 40.537 10.6445 42.4754 11.7053C44.5214 12.809 46.1171 14.7015 46.8732 16.8999C47.684 16.9159 48.4958 16.88 49.3066 16.9149C50.1782 16.9726 50.8934 17.7237 51 18.5763V19.7617C50.9303 20.5476 50.3466 21.209 49.6025 21.4381C49.5895 22.8914 49.6114 24.3457 49.5925 25.799C49.5776 26.7752 48.6851 27.6149 47.7119 27.59C43.4954 27.598 39.278 27.592 35.0615 27.593C34.6631 27.6269 34.2487 27.3788 34.163 26.9744C34.0246 26.4843 34.4519 25.9524 34.9619 25.9843C39.1465 25.9743 43.3331 25.9803 47.5187 25.9813C47.6481 25.9674 47.8075 25.9972 47.9131 25.8986C48.0067 25.7871 47.9759 25.6267 47.9908 25.4942C47.9868 24.1575 47.9898 22.8207 47.9878 21.4849C42.8161 21.482 37.6434 21.4859 32.4707 21.483C31.9896 21.5288 31.5294 21.1024 31.5861 20.6124C31.608 20.1691 32.0384 19.8344 32.4717 19.8723C37.9492 19.8643 43.4277 19.8792 48.9052 19.8643C49.0646 19.8543 49.3266 19.8992 49.3674 19.684C49.4082 19.3423 49.4192 18.9877 49.3535 18.6491C49.2728 18.4847 49.0596 18.5236 48.9112 18.5076C42.8788 18.5136 36.8455 18.5046 30.8132 18.5106C30.5522 20.3135 29.324 21.9392 27.6456 22.6554C25.8128 23.4781 23.5228 23.1414 22.0157 21.8077C21.8394 21.6662 21.674 21.4471 21.42 21.483C15.2841 21.4859 9.14812 21.482 3.01219 21.4849C3.0102 22.8197 3.01318 24.1555 3.0092 25.4902C3.02115 25.6526 2.9843 25.9196 3.20244 25.9594C3.52518 26.0032 3.85189 25.9753 4.17762 25.9803C8.06637 25.9793 11.9561 25.9803 15.8459 25.9793C16.2433 25.9405 16.6637 26.1815 16.7543 26.5869C16.9007 27.086 16.4614 27.6219 15.9445 27.589C11.725 27.597 7.50457 27.595 3.28412 27.59C2.31094 27.6139 1.41943 26.7712 1.40648 25.795C1.38955 24.3427 1.40947 22.8904 1.39752 21.4381C0.65543 21.21 0.0717188 20.5536 0 19.7697V18.5873C0.0966211 17.7307 0.814805 16.9756 1.68738 16.9159C2.4992 16.879 3.314 16.9159 4.12682 16.8989C4.97549 14.4157 6.9109 12.3308 9.3324 11.3158ZM8.9499 13.322C7.57629 14.1547 6.48955 15.4297 5.85105 16.8999C7.64502 16.9059 9.43898 16.8979 11.2329 16.9049C11.0038 16.6489 10.7508 16.4108 10.5556 16.127C10.3743 15.862 10.46 15.5313 10.5138 15.2404C10.6144 14.7733 10.6851 14.3011 10.7927 13.8359C10.8793 13.4146 11.3495 13.1307 11.7639 13.2482C12.1464 13.3339 12.4293 13.7353 12.3635 14.1258C12.2978 14.578 12.1932 15.0233 12.1085 15.4715C12.3386 15.7365 12.5737 15.9965 12.8118 16.2535C12.999 16.0453 13.1863 15.8381 13.3726 15.6289C13.1962 14.4814 12.9562 13.3429 12.8237 12.1894C11.463 12.2253 10.1094 12.6068 8.9499 13.322ZM33.7955 13.4544C32.5165 14.2832 31.5124 15.5054 30.9038 16.8989C32.6968 16.9079 34.4907 16.8969 36.2837 16.9039C36.0227 16.5832 35.6562 16.3222 35.5187 15.9198C35.454 15.4855 35.6213 15.0571 35.6701 14.6278C35.7578 14.2115 35.7388 13.6756 36.1652 13.4395C36.6323 13.1357 37.3246 13.4773 37.3714 14.0312C37.3675 14.5213 37.219 14.9964 37.1603 15.4815C37.3973 15.7355 37.6284 15.9945 37.8605 16.2525C38.0528 16.0453 38.242 15.8361 38.4313 15.6249C38.256 14.4804 38.0876 13.3349 37.9073 12.1904C36.454 12.2173 35.0077 12.6516 33.7955 13.4544ZM14.4543 12.3328C14.6386 13.4594 14.8368 14.585 15.0161 15.7126C15.1356 16.2216 14.6844 16.5692 14.3876 16.9039C16.2901 16.8989 18.1917 16.9039 20.0942 16.9019C19.1111 14.577 16.9396 12.799 14.4543 12.3328ZM39.5629 12.3438C39.7232 13.4036 39.8826 14.4645 40.047 15.5243C40.0838 15.7733 40.1256 16.0503 39.9812 16.2744C39.8308 16.5075 39.6276 16.6997 39.4423 16.9029C41.3449 16.8989 43.2464 16.9049 45.1479 16.8999C44.1688 14.595 42.0262 12.8239 39.5629 12.3438ZM24.727 14.064C23.3225 14.3469 22.1372 15.5044 21.8413 16.9099C21.7129 17.5653 21.7138 18.2586 21.929 18.8971C22.2876 20.0057 23.1911 20.9311 24.3017 21.2957C25.3277 21.6493 26.5061 21.5218 27.4324 20.956C28.2881 20.446 28.9226 19.5814 29.1507 18.6112C29.4684 17.2705 29.0053 15.7704 27.9384 14.8858C27.0718 14.1308 25.8486 13.826 24.727 14.064ZM1.6057 19.2119C1.6326 19.42 1.53498 19.7248 1.76508 19.8464C2.33783 19.8782 2.91357 19.8663 3.48732 19.8703C9.18299 19.8723 14.8796 19.8673 20.5753 19.8723C20.392 19.436 20.2625 18.9788 20.1888 18.5106C14.0887 18.5116 7.98768 18.5016 1.8876 18.5166C1.52402 18.5206 1.62164 18.9718 1.6057 19.2119Z" fill="#C51D38"/>
<path d="M20.3794 25.8389C22.8646 24.5161 25.8658 24.2223 28.5672 25.0082C32.0097 25.9784 34.8626 28.7445 35.9722 32.1412C36.9952 32.1462 38.0192 32.1362 39.0422 32.1452C39.9685 32.1452 40.8023 32.9351 40.8561 33.8595C40.873 34.4561 40.8829 35.0548 40.8501 35.6514C40.7714 36.5091 40.0323 37.1994 39.1916 37.3089C39.1906 38.9136 39.1906 40.5174 39.1916 42.1211C39.1886 42.5803 39.2324 43.0644 39.0302 43.4927C38.7403 44.186 38.0012 44.6412 37.2532 44.6183C29.4169 44.6203 21.5806 44.6213 13.7444 44.6183C13.0222 44.6392 12.31 44.2168 12.0002 43.5614C11.7542 43.0893 11.8139 42.5434 11.809 42.0314C11.8129 41.2335 11.802 40.4367 11.8119 39.6398C11.789 39.1886 12.2064 38.7861 12.6566 38.823C13.07 38.834 13.4256 39.2095 13.4157 39.6239C13.4306 40.6558 13.4067 41.6878 13.4246 42.7197C13.3997 42.9588 13.6607 43.0315 13.849 43.0076C21.6175 43.0056 29.386 43.0056 37.1546 43.0076C37.3388 43.0305 37.5978 42.9598 37.5749 42.7247C37.5889 40.9198 37.5769 39.1139 37.5799 37.3089C29.0683 37.3069 20.5577 37.3099 12.046 37.3079C11.1107 37.3418 10.2311 36.5808 10.1495 35.6455C10.1186 35.0518 10.1276 34.4541 10.1435 33.8605C10.1953 32.9361 11.033 32.1452 11.9584 32.1452C12.9804 32.1372 14.0034 32.1452 15.0263 32.1422C15.9159 29.4577 17.8682 27.1438 20.3794 25.8389ZM25.7881 26.1816C26.079 26.591 26.344 27.0213 26.6637 27.4098C26.7474 27.5263 26.9466 27.5313 27.0362 27.4157C27.3251 27.1209 27.5751 26.7892 27.8481 26.4804C27.1737 26.3061 26.4814 26.2214 25.7881 26.1816ZM22.6943 26.6079C22.9463 26.8848 23.1634 27.1936 23.4374 27.4496C23.5479 27.5462 23.7262 27.4954 23.8009 27.3789C24.0908 27.0073 24.3538 26.6149 24.6098 26.2194C23.9613 26.2931 23.3198 26.4216 22.6943 26.6079ZM29.4319 27.0412C29.1151 27.5382 28.6918 27.9536 28.3192 28.4088C28.0503 28.7445 27.6668 28.9577 27.2594 29.0802C27.4277 30.1012 27.598 31.1212 27.7714 32.1422C29.9349 32.1422 32.0984 32.1432 34.2609 32.1412C33.3754 29.909 31.6163 28.0443 29.4319 27.0412ZM16.7376 32.1412C18.7019 32.1432 20.6672 32.1412 22.6315 32.1422C22.757 31.6073 22.8009 31.0525 22.9762 30.5315C23.2312 29.9239 24.2043 29.9498 24.4335 30.5664C24.6008 31.0853 24.3289 31.6202 24.2731 32.1422C24.8946 32.1422 25.5152 32.1412 26.1368 32.1432C25.9475 31.0146 25.7612 29.886 25.57 28.7585C25.5371 28.5274 25.3499 28.368 25.2243 28.1857C24.6904 29.0643 23.4403 29.4029 22.5737 28.8162C21.998 28.3959 21.6185 27.7693 21.1304 27.2583C19.1482 28.2993 17.5654 30.0614 16.7376 32.1412ZM11.8747 33.7897C11.7133 33.8814 11.7522 34.0915 11.7412 34.2469C11.7542 34.6753 11.7153 35.1076 11.7661 35.5359C11.8259 35.6943 12.0112 35.6953 12.1536 35.6963C21.0826 35.6923 30.0116 35.6992 38.9406 35.6923C39.083 35.7142 39.2533 35.6116 39.2464 35.4552C39.2643 34.9562 39.2693 34.4541 39.2434 33.9561C39.2165 33.7678 39.0023 33.7429 38.8519 33.7499C30.152 33.7489 21.4511 33.7499 12.7513 33.7489C12.4604 33.7608 12.1576 33.71 11.8747 33.7897Z" fill="#C51D38"/>
</svg>
