<svg width="46" height="38" viewBox="0 0 46 38" fill="none" xmlns="http://www.w3.org/2000/svg">
<path d="M27.0072 2.20898V7.45232" stroke="#C51D38" stroke-width="2.5" stroke-linecap="round" stroke-linejoin="round"/>
<path d="M27.0072 31.4802V35.8656" stroke="#C51D38" stroke-width="2.5" stroke-linecap="round" stroke-linejoin="round"/>
<path d="M27.0072 24.0366V13.5911" stroke="#C51D38" stroke-width="2.5" stroke-linecap="round" stroke-linejoin="round"/>
<path fill-rule="evenodd" clip-rule="evenodd" d="M37.521 36.3334C41.4688 36.3334 44.6663 33.1755 44.6663 29.2768V23.6597C42.054 23.6597 39.9502 21.5821 39.9502 19.0023C39.9502 16.4224 42.054 14.3425 44.6663 14.3425L44.6641 8.72321C44.6641 4.82449 41.4642 1.66669 37.5187 1.66669H8.48066C4.5351 1.66669 1.33527 4.82449 1.33527 8.72321L1.33301 14.5255C3.9453 14.5255 6.04915 16.4224 6.04915 19.0023C6.04915 21.5821 3.9453 23.6597 1.33301 23.6597V29.2768C1.33301 33.1755 4.53058 36.3334 8.4784 36.3334H37.521Z" stroke="#C51D38" stroke-width="2.5" stroke-linecap="round" stroke-linejoin="round"/>
</svg>
