<svg width="28" height="22" viewBox="0 0 28 22" xmlns="http://www.w3.org/2000/svg">
    <path fill-rule="evenodd" clip-rule="evenodd"
        d="M21.3594 9.62088C23.1031 9.37588 24.4456 7.88088 24.4494 6.06963C24.4494 4.28463 23.1481 2.80463 21.4419 2.52463"
        stroke="none" />
    <path
        d="M21.3594 9.62088C23.1031 9.37588 24.4456 7.88088 24.4494 6.06963C24.4494 4.28463 23.1481 2.80463 21.4419 2.52463"
        fill="none" stroke-linecap="round" stroke-linejoin="round" />
    <path fill-rule="evenodd" clip-rule="evenodd"
        d="M23.6602 13.8129C25.3489 14.0654 26.5277 14.6566 26.5277 15.8754C26.5277 16.7141 25.9727 17.2591 25.0752 17.6016"
        stroke="none" />
    <path
        d="M23.6602 13.8129C25.3489 14.0654 26.5277 14.6566 26.5277 15.8754C26.5277 16.7141 25.9727 17.2591 25.0752 17.6016"
        fill="none" stroke-linecap="round" stroke-linejoin="round" />
    <path fill-rule="evenodd" clip-rule="evenodd"
        d="M13.8589 14.3297C9.84141 14.3297 6.41016 14.9385 6.41016 17.3697C6.41016 19.7997 9.82016 20.426 13.8589 20.426C17.8764 20.426 21.3064 19.8235 21.3064 17.391C21.3064 14.9585 17.8977 14.3297 13.8589 14.3297Z"
        stroke-width="1.5" stroke-linecap="round"
        stroke-linejoin="round" />
    <path fill-rule="evenodd" clip-rule="evenodd"
        d="M13.8578 10.8599C16.494 10.8599 18.6315 8.72363 18.6315 6.08613C18.6315 3.44988 16.494 1.31238 13.8578 1.31238C11.2215 1.31238 9.08402 3.44988 9.08402 6.08613C9.07402 8.71363 11.1953 10.8511 13.8228 10.8599H13.8578Z"
        stroke-width="1.5" stroke-linecap="round"
        stroke-linejoin="round" />
    <path fill-rule="evenodd" clip-rule="evenodd"
        d="M6.35562 9.62088C4.61062 9.37588 3.26937 7.88088 3.26562 6.06963C3.26562 4.28463 4.56687 2.80463 6.27312 2.52463"
        stroke="none" />
    <path
        d="M6.35562 9.62088C4.61062 9.37588 3.26937 7.88088 3.26562 6.06963C3.26562 4.28463 4.56687 2.80463 6.27312 2.52463"
        fill="none" stroke-linecap="round" stroke-linejoin="round" />
    <path fill-rule="evenodd" clip-rule="evenodd"
        d="M4.055 13.8129C2.36625 14.0654 1.1875 14.6566 1.1875 15.8754C1.1875 16.7141 1.7425 17.2591 2.64 17.6016"
        stroke="none" />
    <path
        d="M4.055 13.8129C2.36625 14.0654 1.1875 14.6566 1.1875 15.8754C1.1875 16.7141 1.7425 17.2591 2.64 17.6016"
        fill="none" stroke-linecap="round" stroke-linejoin="round" />
</svg>