<svg width="15" height="16" viewBox="0 0 15 16" fill="none" xmlns="http://www.w3.org/2000/svg">
<path d="M12.4929 6.10115C12.4929 6.10115 12.0856 11.1524 11.8494 13.2802C11.7369 14.2964 11.1091 14.8919 10.0809 14.9107C8.12411 14.9459 6.16511 14.9482 4.20911 14.9069C3.21986 14.8867 2.60261 14.2837 2.49236 13.2854C2.25461 11.1389 1.84961 6.10115 1.84961 6.10115" stroke="#C51D38" stroke-linecap="round" stroke-linejoin="round"/>
<path d="M13.531 3.67976H0.8125" stroke="#C51D38" stroke-linecap="round" stroke-linejoin="round"/>
<path d="M11.0809 3.67977C10.4922 3.67977 9.98517 3.26352 9.86967 2.68677L9.68742 1.77477C9.57492 1.35402 9.19392 1.06302 8.75967 1.06302H5.58492C5.15067 1.06302 4.76967 1.35402 4.65717 1.77477L4.47492 2.68677C4.35942 3.26352 3.85242 3.67977 3.26367 3.67977" stroke="#C51D38" stroke-linecap="round" stroke-linejoin="round"/>
</svg>
