<svg width="23" height="19" viewBox="0 0 23 19" fill="none" xmlns="http://www.w3.org/2000/svg">
    <path
        d="M11.067 0.359715C11.2368 0.292782 11.4254 0.304461 11.5939 0.369149C15.1135 1.64403 18.6331 2.91757 22.1523 4.19335C22.3958 4.27196 22.589 4.48938 22.6218 4.74544C22.6689 5.04597 22.4843 5.36177 22.1981 5.46643C21.8082 5.61647 21.4116 5.74854 21.0203 5.89499C21.0239 7.9322 21.0176 9.96985 21.0234 12.0071C21.6106 12.591 22.195 13.1777 22.7812 13.7626C22.894 13.8691 22.9596 14.0133 23 14.1606V14.3538C22.9623 14.5043 22.8962 14.6512 22.7817 14.7594C22.1954 15.3457 21.6101 15.9328 21.023 16.5177C21.0162 17.0248 21.0266 17.532 21.0185 18.0392C21.0136 18.3734 20.7252 18.6694 20.3914 18.686C20.0271 18.717 19.6789 18.4044 19.6762 18.0383C19.6686 17.5307 19.6776 17.0235 19.6722 16.5159C19.0792 15.9242 18.4858 15.3326 17.8951 14.7383C17.6327 14.4885 17.6332 14.0321 17.896 13.7828C18.4867 13.189 19.0806 12.5973 19.6726 12.0053C19.6749 10.1298 19.6731 8.25473 19.6735 6.37925C19.1273 6.57645 18.5815 6.77456 18.0348 6.96907C18.0334 8.33739 18.0339 9.70526 18.0343 11.0736C18.0321 11.2888 18.0586 11.525 17.9342 11.7151C17.7864 11.9361 17.5806 12.1108 17.3762 12.2779C16.4818 12.9765 15.3893 13.3704 14.2905 13.6103C13.3732 13.8075 12.4348 13.8906 11.4978 13.9077C10.4295 13.9252 9.35678 13.861 8.30561 13.6606C7.42963 13.4886 6.56533 13.2204 5.7801 12.7905C5.32549 12.5322 4.8848 12.2299 4.54654 11.8265C4.42975 11.6944 4.36281 11.521 4.3673 11.3445C4.36641 9.87237 4.36596 8.40028 4.36775 6.92864C3.15801 6.47268 1.94332 6.02975 0.732227 5.57829C0.545801 5.50552 0.336016 5.4597 0.193164 5.30966C0.0893945 5.20948 0.0363867 5.07157 0 4.93546V4.76026C0.0296484 4.62011 0.0831055 4.47995 0.185078 4.37618C0.331973 4.21716 0.552539 4.17268 0.746602 4.09766C4.18672 2.85198 7.62684 1.6063 11.067 0.359715ZM2.64141 4.84516C4.53711 5.55763 6.44 6.25122 8.3375 6.96009C9.28625 7.30329 10.2278 7.6703 11.1793 8.00407C14.0444 6.98479 16.9023 5.94081 19.7656 4.91479C19.8312 4.89323 19.8954 4.86673 19.9552 4.83169C17.0762 3.78725 14.1967 2.74507 11.3176 1.70243C8.426 2.75136 5.53258 3.79579 2.64141 4.84516ZM5.71451 7.42683C5.71451 8.65274 5.71406 9.87821 5.71451 11.1041C6.1224 11.4985 6.64215 11.7506 7.16908 11.9451C7.98307 12.2393 8.84062 12.3965 9.69953 12.4873C10.8226 12.6005 11.9587 12.5906 13.0781 12.4455C13.9253 12.3336 14.7685 12.1414 15.5542 11.8C15.9549 11.6203 16.3448 11.402 16.6723 11.1064C16.6763 11.0749 16.684 11.012 16.6876 10.9806C16.6849 9.80589 16.6876 8.63118 16.6862 7.45602C14.9707 8.0764 13.2546 8.69317 11.5391 9.31264C11.385 9.36835 11.2188 9.42225 11.0535 9.38946C10.9093 9.35891 10.7745 9.29692 10.6362 9.24751C8.99561 8.64106 7.35641 8.02923 5.71451 7.42683ZM19.3222 14.2612C19.6632 14.604 20.0055 14.945 20.3474 15.2868C20.6897 14.9458 21.0311 14.6035 21.3729 14.2617C21.0315 13.9194 20.6897 13.5775 20.3474 13.2357C20.0055 13.5775 19.6632 13.9189 19.3222 14.2612Z"
        fill="#333333" />
</svg>
    