<svg width="18" height="18" viewBox="0 0 18 18" fill="none" xmlns="http://www.w3.org/2000/svg">
<path fill-rule="evenodd" clip-rule="evenodd" d="M10.1043 1.22395L11.9317 4.91572C12.1108 5.27815 12.4565 5.52946 12.8573 5.58761L16.9453 6.18266C17.9554 6.33012 18.3573 7.56798 17.6263 8.27726L14.6702 11.1497C14.3797 11.4321 14.2474 11.8382 14.3162 12.2369L15.0138 16.2922C15.1856 17.2953 14.1298 18.0607 13.227 17.5861L9.57321 15.6701C9.21502 15.4822 8.78602 15.4822 8.42679 15.6701L4.773 17.5861C3.87023 18.0607 2.81439 17.2953 2.98724 16.2922L3.68385 12.2369C3.75257 11.8382 3.62033 11.4321 3.32982 11.1497L0.37368 8.27726C-0.357285 7.56798 0.0446417 6.33012 1.05466 6.18266L5.14265 5.58761C5.54354 5.52946 5.89028 5.27815 6.06937 4.91572L7.89574 1.22395C8.34765 0.311133 9.65235 0.311133 10.1043 1.22395Z" fill="#EDCE2B"/>
</svg>
