<svg width="25" height="25" viewBox="0 0 25 25" fill="none" xmlns="http://www.w3.org/2000/svg">
<g clip-path="url(#clip0_285_422)">
<path d="M24.829 12.5C24.8304 14.4084 24.3874 16.291 23.5351 17.9985H1.46478C0.729997 16.5219 0.298465 14.913 0.195649 13.2669C0.0928328 11.6207 0.320816 9.97066 0.866144 8.41406C1.02546 7.95493 1.21316 7.50615 1.42816 7.07031H23.5712C23.7866 7.50605 23.9745 7.95484 24.1337 8.41406C24.5959 9.72665 24.8311 11.1084 24.829 12.5Z" fill="#F2F2F2"/>
<path d="M24.1338 8.41407H0.866211C1.02552 7.95494 1.21322 7.50615 1.42822 7.07032C2.44415 5.00026 4.02007 3.25649 5.9771 2.03694C7.93412 0.817395 10.1938 0.170929 12.4998 0.170929C14.8057 0.170929 17.0654 0.817395 19.0224 2.03694C20.9794 3.25649 22.5554 5.00026 23.5713 7.07032C23.7867 7.50605 23.9745 7.95485 24.1338 8.41407Z" fill="#EF2B2D"/>
<path d="M24.1338 16.5884C23.9641 17.0705 23.7641 17.5415 23.5352 17.9985C22.5122 20.0505 20.9375 21.7767 18.9879 22.9832C17.0382 24.1898 14.7908 24.8289 12.498 24.8289C10.2053 24.8289 7.95785 24.1898 6.0082 22.9832C4.05856 21.7767 2.48386 20.0505 1.46094 17.9985C1.23265 17.5415 1.03336 17.0705 0.864258 16.5884H24.1338Z" fill="#242D44"/>
<path d="M14.2363 10.8638L14.3706 14.3022L14.6694 14.6011L14.4976 10.6509L14.2363 10.8638Z" fill="#F28623"/>
<path d="M14.0571 13.9888L14.2363 14.2051L14.1094 10.9727L13.8779 11.144L14.0571 13.9888Z" fill="#F28623"/>
<path d="M10.4004 10.5278L10.1865 10.7183C10.1865 10.6069 10.207 10.4341 10.3301 10.3481C10.5386 10.2017 10.8003 10.2422 11.1074 10.4658C11.3112 10.608 11.5528 10.6859 11.8013 10.6895C11.7725 10.7314 11.7524 10.7568 11.7524 10.7578C11.7482 10.7634 11.7456 10.7701 11.7449 10.7771C11.7442 10.7841 11.7455 10.7912 11.7486 10.7975C11.7517 10.8038 11.7565 10.8091 11.7624 10.8129C11.7683 10.8167 11.7752 10.8187 11.7822 10.8189C11.8516 10.8189 11.9912 10.7549 12.0723 10.7144L12.064 10.8608C12.0636 10.8675 12.065 10.874 12.068 10.88C12.071 10.8859 12.0755 10.8909 12.0811 10.8945C12.0872 10.8985 12.0943 10.9006 12.1016 10.9009C12.1075 10.9009 12.1134 10.8994 12.1187 10.8965C12.2052 10.8454 12.2869 10.7866 12.3628 10.7207L12.4746 10.8521C12.4779 10.8559 12.4819 10.859 12.4865 10.8613C12.491 10.8636 12.4959 10.8649 12.501 10.8652C12.5061 10.8657 12.5112 10.8651 12.5161 10.8633C12.5209 10.8615 12.5252 10.8587 12.5288 10.855L12.6514 10.7422C12.7534 10.8584 12.96 10.8647 12.9697 10.8652C12.9751 10.866 12.9806 10.8652 12.9856 10.8631C12.9906 10.8609 12.9949 10.8575 12.998 10.853C13.0017 10.8491 13.0045 10.8445 13.0063 10.8395C13.0081 10.8344 13.0087 10.8291 13.0083 10.8237L13.0029 10.7681C13.0804 10.7886 13.1609 10.7953 13.2407 10.7881C13.2475 10.7874 13.254 10.7849 13.2594 10.7808C13.2649 10.7768 13.2693 10.7714 13.272 10.7651C13.2747 10.7588 13.2756 10.7518 13.2745 10.745C13.2735 10.7382 13.2706 10.7318 13.2661 10.7266C13.2549 10.7129 13.2471 10.6973 13.2363 10.6831C13.3545 10.6724 13.5962 10.6382 13.7734 10.5308C13.9375 10.4331 14.3223 10.2017 14.5786 10.2803C14.6226 10.2944 14.663 10.3181 14.6967 10.3497C14.7305 10.3813 14.7568 10.4199 14.7739 10.4629C14.8099 10.5433 14.8249 10.6315 14.8174 10.7192L14.6016 10.5269L14.7363 14.6372L15.0645 14.9434L14.9375 10.8267L14.8862 10.7808C14.9079 10.6615 14.892 10.5385 14.8408 10.4287C14.8194 10.3767 14.7868 10.33 14.7454 10.2918C14.7039 10.2537 14.6547 10.2251 14.6011 10.208C14.3125 10.1191 13.9072 10.3618 13.7344 10.4658C13.5435 10.5806 13.2642 10.606 13.1851 10.6123C12.9971 10.2925 12.9995 9.86768 13.0015 9.60205C13.0015 9.52783 13.0015 9.46387 13.0015 9.41651C13.0006 9.40144 12.9988 9.38643 12.9961 9.37158C12.9556 9.15576 12.7739 9.0918 12.5635 9.01758C12.5279 9.00188 12.4894 8.99377 12.4504 8.99377C12.4115 8.99377 12.373 9.00188 12.3374 9.01758C12.3118 9.03134 12.2904 9.05175 12.2754 9.07666C12.1814 9.05435 12.0853 9.04256 11.9888 9.04151C11.9821 9.04102 11.9754 9.04102 11.9687 9.04151C11.9412 9.04576 11.9154 9.05754 11.8941 9.07555C11.8728 9.09356 11.8569 9.11709 11.8481 9.14356C11.8224 9.22068 11.8132 9.30239 11.8213 9.3833C11.8219 9.38962 11.8241 9.39568 11.8276 9.40092C11.8312 9.40617 11.836 9.41043 11.8417 9.4133C11.8473 9.41618 11.8536 9.41758 11.86 9.41737C11.8663 9.41716 11.8725 9.41535 11.8779 9.41211L11.9575 9.36328C12.0479 9.36914 12.1152 9.45508 12.1475 9.50684C12.1646 9.53418 12.1714 9.54834 12.1714 9.54834C12.2656 9.90625 12.0034 10.3784 11.8516 10.6133C11.6021 10.6189 11.3572 10.5459 11.1514 10.4048C10.7329 10.0996 10.4502 10.1724 10.2861 10.2861C10.104 10.4131 10.1045 10.6768 10.1128 10.7837L10.064 10.8276L9.9375 14.9443L10.2656 14.6382L10.4004 10.5278ZM12.2402 9.52149C12.2402 9.52149 12.2314 9.50244 12.2153 9.47266C12.273 9.46466 12.3316 9.46848 12.3877 9.48389C12.3877 9.48389 12.1924 9.25684 12.0459 9.23633C12.0239 9.23121 12.0008 9.23351 11.9802 9.24287C11.9596 9.25223 11.9427 9.26813 11.9321 9.28809C11.9305 9.28787 11.9289 9.28787 11.9272 9.28809L11.8936 9.30811C11.8933 9.25988 11.9014 9.21197 11.9175 9.16651C11.9206 9.1592 11.9244 9.15218 11.9287 9.14551C11.9897 9.13738 12.0513 9.13412 12.1128 9.13574C12.2026 9.1416 12.4746 9.38916 12.4746 9.38916C12.5496 9.31333 12.6499 9.26764 12.7563 9.26074C12.7819 9.25807 12.8078 9.26105 12.8321 9.26949C12.8564 9.27793 12.8786 9.29161 12.897 9.30957C12.9085 9.33255 12.9167 9.35704 12.9214 9.38233C12.9236 9.39444 12.925 9.40666 12.9258 9.41895C12.9292 9.46338 12.9287 9.52588 12.9282 9.59815C12.9258 9.87696 12.9243 10.3232 13.1328 10.6631C13.1344 10.6683 13.1372 10.673 13.1411 10.6768C13.1489 10.689 13.1543 10.7017 13.1626 10.7134C13.1008 10.7167 13.0394 10.7031 12.9849 10.6738C12.8066 10.4785 12.7939 9.93262 12.7939 9.92725C12.7938 9.91736 12.7898 9.90792 12.7828 9.90098C12.7757 9.89403 12.7662 9.89014 12.7563 9.89014C12.7514 9.8902 12.7465 9.89125 12.7419 9.89323C12.7373 9.89521 12.7332 9.89808 12.7297 9.90167C12.7263 9.90526 12.7236 9.9095 12.7218 9.91414C12.72 9.91878 12.7191 9.92373 12.7192 9.92871C12.7192 9.95215 12.7329 10.4956 12.9233 10.7163L12.9297 10.7847C12.8555 10.7749 12.7378 10.7441 12.6924 10.667C12.625 10.4507 12.6553 9.93457 12.6553 9.93018C12.6558 9.92023 12.6524 9.91047 12.6459 9.90299C12.6393 9.8955 12.63 9.89089 12.6201 9.89014C12.6151 9.88943 12.6099 9.88983 12.605 9.8913C12.6002 9.89278 12.5957 9.8953 12.5918 9.89869C12.588 9.90209 12.585 9.90627 12.583 9.91094C12.5809 9.91562 12.58 9.92068 12.5801 9.92578C12.5801 9.94678 12.5503 10.4346 12.6157 10.6719L12.5073 10.7695L12.415 10.6611C12.4888 10.5244 12.5347 10.0654 12.5479 9.91602C12.5488 9.90605 12.5457 9.89612 12.5393 9.88843C12.5328 9.88074 12.5236 9.87591 12.5137 9.875C12.5037 9.8741 12.4938 9.87719 12.4861 9.8836C12.4784 9.89001 12.4736 9.89921 12.4727 9.90918C12.4443 10.2285 12.3872 10.5967 12.3442 10.6353C12.3442 10.6353 12.2334 10.7329 12.144 10.79L12.1514 10.666C12.3003 10.5532 12.3892 10.0381 12.4062 9.9336C12.4077 9.92844 12.408 9.92303 12.4073 9.91773C12.4065 9.91242 12.4046 9.90735 12.4017 9.90283C12.3988 9.89831 12.395 9.89445 12.3905 9.8915C12.3861 9.88855 12.381 9.88658 12.3757 9.88572C12.3704 9.88485 12.365 9.88512 12.3598 9.88649C12.3547 9.88786 12.3498 9.89031 12.3457 9.89367C12.3415 9.89704 12.3381 9.90125 12.3356 9.90602C12.3332 9.9108 12.3318 9.91604 12.3315 9.92139C12.293 10.1655 12.1958 10.5664 12.0981 10.6138C12.0259 10.6523 11.9514 10.6866 11.875 10.7163C12.0146 10.5107 12.3535 9.95557 12.2402 9.52149Z" fill="#F28623"/>
<path d="M10.3306 14.6011L10.6294 14.3022L10.7637 10.8638L10.5024 10.6509L10.3306 14.6011Z" fill="#F28623"/>
<path d="M11.1221 11.144L10.8906 10.9727L10.7637 14.2051L10.9429 13.9888L11.1221 11.144Z" fill="#F28623"/>
<path d="M12.1338 12.9253V11.3169C11.9578 11.3797 11.7732 11.4146 11.5864 11.4204C11.6235 12.1299 11.8857 12.6177 12.1338 12.9253ZM12.8906 11.3154V12.9507C13.3018 12.4414 13.4146 11.7388 13.4453 11.4243C13.2566 11.4111 13.0703 11.3746 12.8906 11.3154Z" fill="#F28623"/>
<path d="M14.7699 15.2002H14.6913C14.6709 15.1618 14.6424 15.1283 14.6077 15.1021C14.5731 15.0759 14.5331 15.0575 14.4906 15.0483V14.9902C14.5035 14.9551 14.5079 14.9175 14.5035 14.8804C14.4992 14.8432 14.4863 14.8076 14.4657 14.7764C14.4311 14.7334 14.3878 14.6982 14.3387 14.6729C14.2896 14.6477 14.2357 14.633 14.1806 14.6299C14.1173 14.6328 14.0545 14.6432 13.9936 14.6606L13.7138 13.708L13.8778 13.8613L13.8031 11.1885L13.6567 11.249C13.6567 11.2446 13.6567 11.2397 13.6518 11.2363C13.6446 11.2292 13.635 11.225 13.6249 11.2246C12.8739 11.2158 12.5375 10.8984 12.5346 10.895C12.5281 10.8889 12.5196 10.8852 12.5107 10.8847C12.5018 10.8841 12.4929 10.8868 12.4858 10.8921C12.1805 11.1263 11.7997 11.24 11.4159 11.2114C11.4108 11.211 11.4057 11.2117 11.4009 11.2134C11.3961 11.2152 11.3917 11.218 11.3881 11.2217C11.3807 11.2289 11.3765 11.2387 11.3764 11.249C11.3764 11.2539 11.3764 11.2578 11.3764 11.2627L11.1972 11.1885L11.1225 13.8613L11.311 13.6855L11.2304 13.9648L11.016 14.6943C10.9825 14.6852 10.9498 14.6731 10.9184 14.6582C10.8982 14.6445 10.8753 14.6355 10.8512 14.6319C10.8271 14.6282 10.8025 14.6301 10.7792 14.6372C10.7525 14.6475 10.73 14.6664 10.7153 14.6909C10.6859 14.6923 10.6573 14.7 10.6312 14.7133C10.6051 14.7267 10.5821 14.7456 10.5639 14.7686C10.5028 14.8477 10.5082 14.9639 10.5151 15.0278C10.4693 15.0364 10.4273 15.0593 10.3953 15.0931C10.3633 15.127 10.3428 15.1701 10.3368 15.2163L10.2465 15.2466C10.2393 15.2489 10.233 15.2533 10.2284 15.2593C10.2237 15.2653 10.221 15.2725 10.2205 15.28C10.2201 15.2875 10.2219 15.295 10.2257 15.3015C10.2296 15.308 10.2353 15.3132 10.2421 15.3164L10.2992 15.3438C10.2989 15.3929 10.3129 15.441 10.3395 15.4823C10.3662 15.5236 10.4042 15.5562 10.4491 15.5762C10.412 15.7427 10.5292 15.7832 10.601 15.8076C10.6189 15.8129 10.6362 15.8199 10.6528 15.8286C10.746 15.8814 11.8612 15.9727 12.4062 16C12.4945 16.0044 12.5829 16.0063 12.6708 16.0063C13.0929 15.9992 13.5142 15.9674 13.9325 15.9111L14.1913 15.8813C14.3998 15.8589 14.5307 15.7988 14.582 15.7036C14.6036 15.6611 14.609 15.6121 14.5971 15.5659C14.6889 15.5225 14.7104 15.416 14.7079 15.3481L14.7958 15.2637C14.8013 15.2585 14.8051 15.2517 14.8068 15.2443C14.8084 15.2369 14.8077 15.2292 14.8049 15.2222C14.802 15.2152 14.7971 15.2092 14.7908 15.205C14.7845 15.2008 14.777 15.1986 14.7695 15.1987L14.7699 15.2002ZM13.9399 14.7539L13.8822 14.7632L13.9389 14.7505L13.9399 14.7539ZM11.7831 12.7759C11.7779 12.7826 11.7751 12.7908 11.7753 12.7993L11.8022 13.1221L11.5776 13.3394L11.5155 13.248L11.6982 12.6265C11.7275 12.6787 11.7558 12.728 11.7851 12.7759H11.7831ZM13.3212 12.646L13.498 13.2476L13.436 13.3394L13.2113 13.1221L13.2377 12.8018C13.2694 12.7505 13.2978 12.6987 13.3232 12.6465L13.3212 12.646ZM12.0863 14.4619L11.9989 14.1934C12.0052 14.1914 12.0108 14.1877 12.0151 14.1826L12.205 13.9712L12.0863 14.4619ZM12.8793 14.2637L12.8144 13.9766L12.9989 14.1816C13.0031 14.1868 13.0087 14.1905 13.0151 14.1924L12.9277 14.4609L12.8793 14.2637ZM12.9604 14.6025L13.0629 14.2886L13.225 14.52C13.229 14.5255 13.2343 14.5298 13.2405 14.5325C13.2467 14.5353 13.2535 14.5363 13.2602 14.5356C13.2669 14.5349 13.2734 14.5323 13.2788 14.5282C13.2842 14.5241 13.2884 14.5185 13.2909 14.5122L13.393 14.2607L13.5536 14.4946C13.5567 14.4986 13.5606 14.502 13.5651 14.5044C13.5696 14.5068 13.5745 14.5083 13.5795 14.5088L13.4819 14.771L13.4662 14.7739L13.3549 14.625C13.351 14.6199 13.3458 14.6158 13.34 14.6132C13.3341 14.6106 13.3276 14.6094 13.3212 14.6099C13.3148 14.6105 13.3087 14.6128 13.3034 14.6165C13.2981 14.6201 13.2938 14.6251 13.2909 14.6309L13.1991 14.8154C13.1373 14.823 13.0749 14.8252 13.0126 14.8223L12.9604 14.6025ZM13.3842 14.7891C13.352 14.7949 13.3212 14.7993 13.2904 14.8037L13.332 14.7192L13.3842 14.7891ZM13.5697 14.7539L13.6264 14.6001L13.7187 14.7222L13.5697 14.7539ZM13.5727 14.3887L13.4174 14.1602C13.4134 14.1547 13.4081 14.1503 13.402 14.1474C13.3958 14.1446 13.389 14.1434 13.3822 14.144C13.3755 14.1448 13.369 14.1474 13.3636 14.1515C13.3582 14.1556 13.354 14.1612 13.3515 14.1675L13.2489 14.4199L13.0859 14.1836C13.0812 14.177 13.0745 14.172 13.0668 14.1694C13.067 14.1683 13.067 14.1671 13.0668 14.166L13.1645 13.7852L13.3227 13.9805C13.3269 13.9858 13.3325 13.9898 13.3389 13.9921C13.3453 13.9944 13.3522 13.995 13.3588 13.9937C13.3656 13.9923 13.3718 13.9892 13.377 13.9847C13.3821 13.9801 13.386 13.9743 13.3881 13.9678L13.4628 13.7236L13.7104 13.9829L13.5727 14.3887ZM13.4711 13.623C13.4666 13.6183 13.461 13.6148 13.4547 13.6129C13.4485 13.611 13.4418 13.6108 13.4355 13.6123C13.429 13.6138 13.423 13.617 13.4181 13.6215C13.4132 13.6261 13.4096 13.6318 13.4076 13.6382L13.3349 13.876L13.1747 13.6807C13.1703 13.6752 13.1644 13.6711 13.1578 13.6688C13.1511 13.6664 13.144 13.666 13.1371 13.6675C13.1303 13.669 13.124 13.6724 13.119 13.6774C13.114 13.6823 13.1105 13.6885 13.1088 13.6953L13.0111 14.0801L12.809 13.8545L12.9648 13.4277L13.1112 13.6025C13.1148 13.6068 13.1192 13.6102 13.1241 13.6126C13.1291 13.6149 13.1345 13.6162 13.1401 13.6162C13.1438 13.6167 13.1476 13.6167 13.1513 13.6162C13.1585 13.614 13.1649 13.6096 13.1696 13.6037C13.1743 13.5978 13.1771 13.5906 13.1777 13.583L13.2074 13.2217L13.4198 13.4272C13.4268 13.434 13.436 13.4379 13.4457 13.438H13.4496C13.4552 13.4373 13.4605 13.4355 13.4653 13.4327C13.4701 13.4298 13.4743 13.426 13.4775 13.4214L13.5292 13.3442L13.6757 13.8355L13.4711 13.623ZM13.1435 13.0537L13.1015 13.0132C13.1191 12.9893 13.1361 12.9644 13.1528 12.9404L13.1435 13.0537ZM13.0551 13.0732L13.1352 13.1509L13.1078 13.4819L12.9062 13.2378C12.9588 13.1859 13.0085 13.1311 13.0551 13.0737V13.0732ZM12.851 13.291L12.9076 13.3594L12.7651 13.75L12.6913 13.4219C12.747 13.3815 12.8003 13.338 12.851 13.2915V13.291ZM12.3261 13.4063L12.3373 13.4204L12.3329 13.418L12.2631 13.731L12.2563 13.7598L12.1098 13.3584L12.1801 13.2734C12.2338 13.3272 12.2831 13.3711 12.3261 13.4067V13.4063ZM11.9091 13.4819L11.8822 13.1509L11.9799 13.0532C12.0287 13.1143 12.0776 13.1709 12.1264 13.2192L11.9091 13.4819ZM11.8739 13.0537L11.8608 12.8931C11.8852 12.9282 11.9096 12.9634 11.934 12.9956L11.8739 13.0537ZM11.4902 13.3413L11.5419 13.4185C11.545 13.423 11.5491 13.4269 11.5538 13.4297C11.5585 13.4326 11.5638 13.4344 11.5693 13.4351H11.5722C11.582 13.435 11.5915 13.4311 11.5986 13.4243L11.811 13.2188L11.8407 13.5801C11.8412 13.5876 11.8439 13.5948 11.8485 13.6007C11.8531 13.6066 11.8594 13.611 11.8666 13.6133H11.8783C11.8838 13.6133 11.8893 13.612 11.8943 13.6097C11.8992 13.6073 11.9036 13.6039 11.9071 13.5996L12.0536 13.4248L12.2099 13.8516L12.0072 14.0771L11.9096 13.6924C11.9079 13.6855 11.9044 13.6793 11.8994 13.6744C11.8944 13.6695 11.8881 13.666 11.8812 13.6645C11.8743 13.663 11.8672 13.6634 11.8605 13.6657C11.8539 13.6681 11.8481 13.6722 11.8437 13.6777L11.6835 13.873L11.6103 13.6353C11.6085 13.6289 11.605 13.6231 11.6002 13.6185C11.5954 13.614 11.5894 13.6108 11.5829 13.6094C11.5765 13.6079 11.5698 13.6081 11.5634 13.61C11.5571 13.6118 11.5514 13.6153 11.5468 13.6201L11.3466 13.8296L11.4902 13.3413ZM11.5561 13.7217L11.6308 13.9658C11.6328 13.9723 11.6366 13.9781 11.6416 13.9827C11.6467 13.9872 11.6529 13.9904 11.6596 13.9917C11.6663 13.9929 11.6732 13.9924 11.6797 13.9901C11.6861 13.9878 11.6918 13.9838 11.6962 13.9785L11.8539 13.7832L11.9516 14.1641C11.9514 14.1652 11.9514 14.1664 11.9516 14.1675C11.9438 14.17 11.9371 14.1749 11.9325 14.1816L11.7675 14.4199L11.665 14.1675C11.6624 14.1612 11.6582 14.1556 11.6528 14.1515C11.6474 14.1474 11.641 14.1448 11.6342 14.144H11.6303C11.6242 14.1439 11.6181 14.1454 11.6126 14.1482C11.6072 14.151 11.6025 14.1551 11.599 14.1602L11.4418 14.3887L11.3075 13.9814L11.5561 13.7217ZM11.4609 14.7959C11.3949 14.7842 11.331 14.7715 11.2704 14.7583L11.3891 14.6011L11.4609 14.7959ZM11.6073 14.8198L11.6816 14.7222L11.7392 14.8384C11.6977 14.8311 11.6537 14.8252 11.6088 14.8188L11.6073 14.8198ZM11.828 14.8447L11.7221 14.6318C11.7192 14.6261 11.7149 14.6212 11.7096 14.6175C11.7043 14.6139 11.6982 14.6116 11.6918 14.6108C11.6854 14.6105 11.679 14.6117 11.6731 14.6143C11.6673 14.617 11.6621 14.621 11.6581 14.626L11.537 14.7881L11.4345 14.5098C11.4395 14.5092 11.4444 14.5077 11.4489 14.5053C11.4533 14.5029 11.4572 14.4996 11.4604 14.4956L11.621 14.2617L11.7231 14.5132C11.7254 14.5196 11.7296 14.5252 11.735 14.5294C11.7405 14.5335 11.747 14.536 11.7538 14.5366C11.7605 14.5372 11.7673 14.536 11.7734 14.5333C11.7795 14.5306 11.7849 14.5263 11.789 14.521L11.9511 14.2896L12.0531 14.6035L11.9941 14.8506C11.9462 14.8506 11.8896 14.8486 11.8295 14.8438L11.828 14.8447ZM12.1029 14.7202L12.1415 14.7964L12.288 14.6787L12.4262 13.8628L12.3852 14.7271L12.495 14.8574L12.6371 14.7271L12.5922 13.8101L12.7314 14.6973L12.8813 14.8076C12.8124 14.7991 12.7426 14.8139 12.683 14.8496C12.6661 14.8614 12.652 14.8767 12.6415 14.8945C12.6157 14.8974 12.5908 14.9057 12.5684 14.9187C12.546 14.9317 12.5265 14.9493 12.5111 14.9702C12.49 14.9457 12.4638 14.926 12.4344 14.9124C12.4051 14.8988 12.3731 14.8915 12.3407 14.8911C12.3207 14.8472 12.2577 14.8257 12.0746 14.8423L12.1029 14.7202ZM12.9189 14.7515L12.9345 14.8154C12.9179 14.8154 12.9008 14.811 12.8857 14.8101L12.9189 14.7515ZM13.8617 14.6914L13.7997 14.7051L13.6469 14.502C13.6407 14.4943 13.6318 14.4894 13.622 14.4883L13.7489 14.1021L13.9189 14.6812L13.8617 14.6914ZM13.37 12.543C13.475 12.299 13.552 12.044 13.5995 11.7827L13.6484 13.4893L13.37 12.543ZM12.5043 10.9717C12.5942 11.0459 12.9316 11.2837 13.5834 11.3008C13.5712 11.5449 13.4604 12.9077 12.5092 13.4492C12.37 13.3579 11.4677 12.7134 11.4516 11.2891C11.8291 11.308 12.2016 11.1956 12.5058 10.9712L12.5043 10.9717ZM11.4008 11.6553C11.4363 11.9584 11.5204 12.2539 11.6498 12.5303C11.6488 12.5315 11.648 12.5328 11.6474 12.5342L11.4379 13.248L11.3471 13.5562L11.4008 11.6553ZM11.2665 14.1001L11.3935 14.4863C11.3886 14.4868 11.3839 14.4882 11.3796 14.4906C11.3753 14.4929 11.3716 14.4961 11.3686 14.5L11.1874 14.7397C11.1508 14.731 11.1166 14.7227 11.0854 14.7144L11.2665 14.1001ZM14.6415 15.3091C14.6374 15.3131 14.6343 15.318 14.6324 15.3234C14.6304 15.3288 14.6297 15.3346 14.6303 15.3403C14.6303 15.3462 14.6444 15.4868 14.5395 15.5093C14.5338 15.5105 14.5284 15.5131 14.5239 15.5167C14.5194 15.5204 14.5158 15.5251 14.5134 15.5304C14.511 15.5358 14.5099 15.5416 14.5102 15.5474C14.5105 15.5532 14.5122 15.5589 14.5151 15.564C14.523 15.5808 14.5271 15.5991 14.5271 15.6177C14.5271 15.6363 14.523 15.6546 14.5151 15.6714C14.4892 15.7202 14.4111 15.7847 14.185 15.8096C14.102 15.8184 14.0155 15.8286 13.9257 15.8389C13.4662 15.8931 12.9452 15.9541 12.412 15.9272C11.7284 15.8936 10.766 15.8027 10.6923 15.7656C10.6716 15.7547 10.6498 15.7459 10.6274 15.7393C10.5492 15.7124 10.4931 15.6929 10.5297 15.5679C10.5317 15.5633 10.5328 15.5584 10.5328 15.5535C10.5328 15.5485 10.5317 15.5436 10.5297 15.5391C10.5274 15.5346 10.5243 15.5306 10.5204 15.5275C10.5165 15.5243 10.5121 15.5219 10.5072 15.5205C10.4661 15.5085 10.4305 15.4822 10.4068 15.4465C10.3832 15.4108 10.3729 15.3678 10.3778 15.3252C10.3788 15.3181 10.3777 15.3109 10.3746 15.3044C10.3716 15.2979 10.3668 15.2924 10.3608 15.2886L10.3847 15.2808C10.3918 15.2783 10.3981 15.2738 10.4027 15.2678C10.4073 15.2618 10.41 15.2546 10.4106 15.2471C10.4115 15.2078 10.4277 15.1705 10.4558 15.1431C10.484 15.1157 10.5217 15.1005 10.561 15.1006C10.5666 15.1006 10.5721 15.0993 10.5772 15.0968C10.5823 15.0944 10.5867 15.0908 10.5903 15.0864C10.5938 15.0819 10.5963 15.0767 10.5975 15.0711C10.5988 15.0656 10.5988 15.0598 10.5976 15.0542C10.5976 15.0542 10.5605 14.897 10.6235 14.8154C10.6374 14.7987 10.6551 14.7856 10.6752 14.7771C10.6952 14.7686 10.717 14.765 10.7387 14.7666C10.7463 14.7664 10.7538 14.7639 10.76 14.7594C10.7663 14.755 10.7711 14.7488 10.7738 14.7417C10.7767 14.7344 10.7809 14.7277 10.7864 14.7221C10.7918 14.7165 10.7984 14.712 10.8056 14.709C10.8186 14.7064 10.8319 14.7066 10.8448 14.7093C10.8578 14.7121 10.87 14.7175 10.8808 14.7251C10.9171 14.7426 10.9548 14.757 10.9936 14.7681L10.9911 14.7759C10.9897 14.781 10.9893 14.7864 10.99 14.7917C10.9908 14.797 10.9927 14.8021 10.9955 14.8066C10.9983 14.8113 11.002 14.8152 11.0065 14.8181C11.011 14.8211 11.0161 14.823 11.0214 14.8237L11.5234 14.9023L12.0072 14.981H12.0116C12.0201 14.981 12.0283 14.9781 12.0349 14.9729C12.0416 14.9677 12.0463 14.9604 12.0483 14.9522L12.0561 14.9204H12.0653C12.2465 14.9014 12.2729 14.9243 12.2734 14.9268C12.2752 14.9383 12.2812 14.9488 12.2901 14.9563C12.2991 14.9639 12.3105 14.9679 12.3222 14.9678C12.3564 14.9641 12.3909 14.9725 12.4197 14.9913C12.4486 15.0102 12.47 15.0384 12.4804 15.0713C12.483 15.0796 12.4884 15.0868 12.4957 15.0915C12.503 15.0962 12.5118 15.0982 12.5204 15.0972C12.5292 15.0962 12.5373 15.0922 12.5435 15.0859C12.5496 15.0795 12.5534 15.0713 12.5541 15.0625C12.5541 15.0537 12.5639 14.9746 12.6708 14.9678C12.6789 14.9667 12.6865 14.9633 12.6926 14.9579C12.6987 14.9525 12.703 14.9454 12.705 14.9375C12.705 14.9375 12.7299 14.8569 12.9545 14.8921L12.9692 14.9526C12.9711 14.9609 12.9758 14.9682 12.9825 14.9734C12.9891 14.9786 12.9973 14.9815 13.0058 14.9814H13.0116L13.4955 14.9028L13.9955 14.8213C14.0008 14.8206 14.0059 14.8187 14.0104 14.8157C14.0149 14.8127 14.0187 14.8088 14.0214 14.8042C14.0244 14.7997 14.0263 14.7946 14.0271 14.7893C14.0278 14.784 14.0274 14.7786 14.0258 14.7734L14.0146 14.7349C14.0679 14.7224 14.1218 14.7128 14.1762 14.7061C14.2197 14.7087 14.2623 14.7201 14.3013 14.7398C14.3402 14.7594 14.3748 14.7868 14.4028 14.8203C14.4175 14.8427 14.4265 14.8683 14.4289 14.895C14.4313 14.9217 14.427 14.9485 14.4164 14.9731C14.416 14.9772 14.416 14.9813 14.4164 14.9854V15.083C14.4165 15.088 14.4175 15.093 14.4195 15.0976C14.4215 15.1023 14.4245 15.1064 14.4281 15.1099C14.4356 15.1167 14.4453 15.1206 14.4555 15.1206C14.4609 15.1206 14.5658 15.1206 14.6371 15.2564C14.6403 15.2625 14.6452 15.2677 14.6511 15.2713C14.657 15.2749 14.6639 15.2768 14.6708 15.2769H14.6777L14.6415 15.3091Z" fill="#F28623"/>
<path opacity="0.12" d="M19.3525 3.82666C17.2814 2.19692 14.6995 1.35451 12.0658 1.44921C6.02727 1.65234 1.19914 6.7124 1.26457 12.7539C1.27535 13.8394 1.44462 14.9175 1.76701 15.9541C1.8326 16.1675 1.96645 16.3535 2.14799 16.4834C2.32954 16.6134 2.54874 16.6801 2.7719 16.6733C15.0336 16.2554 18.7875 7.68261 19.6825 4.92089C19.7457 4.72661 19.7479 4.51765 19.6889 4.32206C19.6299 4.12648 19.5125 3.95361 19.3525 3.82666Z" fill="white"/>
</g>
<defs>
<clipPath id="clip0_285_422">
<rect width="25" height="25" fill="white"/>
</clipPath>
</defs>
</svg>
