<svg width="99" height="99" viewBox="0 0 99 99" fill="none" xmlns="http://www.w3.org/2000/svg">
<g clip-path="url(#clip0_29_39)">
<path d="M38.2561 0H39.2229C40.1607 0.0754101 41.0908 0.241699 41.9938 0.504668C49.3917 2.65289 56.7916 4.80111 64.1895 6.94934C65.5024 7.32445 66.7689 7.891 67.8653 8.71084C70.4853 10.6174 72.1501 13.7653 72.2429 17.004C72.3029 18.2995 72.0766 19.5892 71.7054 20.8248C69.5514 28.215 67.4205 35.611 65.2568 42.9993C64.4737 45.7179 62.6388 48.1291 60.1483 49.4981C57.6095 50.9444 54.4867 51.2654 51.6927 50.4204C44.1884 48.249 36.6861 46.0679 29.1857 43.8848C26.2737 43.065 23.7619 40.969 22.4529 38.2407C21.2985 35.9146 21.051 33.165 21.751 30.6649C22.5476 27.8515 23.3868 25.0497 24.1873 22.2363C24.3362 21.7433 24.5025 21.1825 24.984 20.9137C25.6685 20.4632 26.6913 20.7668 27.022 21.517C27.2327 21.9192 27.1554 22.3852 27.0452 22.8048C26.2234 25.7168 25.3262 28.6075 24.5373 31.5272C23.7329 34.4199 24.8041 37.7012 27.136 39.5826C28.2556 40.5475 29.6787 41.0347 31.0806 41.4195C37.736 43.3473 44.3856 45.2828 51.0391 47.2145C52.3636 47.6031 53.7152 48.0363 55.1132 47.9783C57.6346 47.9203 60.0825 46.5493 61.4496 44.4301C62.1921 43.3125 62.5401 41.9977 62.9056 40.7215C64.8953 33.8708 66.883 27.0181 68.8765 20.1674C69.1434 19.2045 69.3696 18.2125 69.3348 17.2051C69.2923 14.7011 67.9639 12.2512 65.8717 10.8707C64.7212 10.0779 63.3503 9.72211 62.0258 9.34119C55.5347 7.45787 49.0437 5.57262 42.5526 3.68736C41.2842 3.31418 39.9964 2.89846 38.6603 2.92166C35.4486 2.91586 32.3587 5.08922 31.3435 8.14816C30.516 10.6676 27.5578 21.1639 26.7863 23.7008C26.6529 24.1339 26.4112 24.5728 25.9762 24.7642C25.2955 25.122 24.3713 24.8087 24.0542 24.1087C23.7796 23.6002 23.9749 23.0182 24.1122 22.5C24.7889 20.2242 27.7297 10.0121 28.4084 7.73631C28.9517 5.91486 29.9688 4.2365 31.3571 2.93906C33.2114 1.17562 35.7096 0.148887 38.2561 0Z" fill="#C51D38"/>
<path d="M49.003 16.7082C49.9853 16.5651 51.0546 16.9441 51.7197 17.6866C52.0929 18.0714 52.0755 18.6398 52.0543 19.1387C51.8126 24.4271 51.6018 29.7155 51.3582 35.0038C51.3678 35.3384 51.1629 35.6516 50.8554 35.7792C50.0337 36.1582 48.9547 36.0867 48.2838 35.4447C48.0846 35.2185 48.1426 34.8936 48.1387 34.6191C48.1987 33.5594 48.2818 32.4998 48.336 31.4402C46.5358 30.8099 44.7395 30.166 42.9412 29.5298C42.3321 30.3729 41.7327 31.2237 41.1314 32.0706C40.938 32.3181 40.7505 32.641 40.4024 32.6739C39.4704 32.7106 38.5848 32.0725 38.2155 31.2353C38.0628 30.9104 38.1962 30.5527 38.4108 30.2936C41.4833 26.1499 44.5674 22.014 47.636 17.8683C47.9937 17.3907 48.3572 16.8029 49.003 16.7082ZM49.0437 20.848C47.5026 23.0117 45.9692 25.1812 44.432 27.3468C45.7971 27.8341 47.1642 28.3194 48.5313 28.8028C48.7053 26.1519 48.8774 23.5009 49.0437 20.848Z" fill="#C51D38"/>
<path d="M33.5962 50.4475C35.2069 50.1806 36.8775 50.2464 38.4456 50.7143C41.5278 51.598 44.1613 53.9318 45.3776 56.9018C46.0021 58.3597 46.1645 59.9511 46.4256 61.4999C47.5335 68.3332 48.6357 75.1665 49.7456 81.9979C49.9776 83.3263 50.0859 84.6914 49.8732 86.0314C49.3685 89.5505 46.9941 92.7274 43.7611 94.2066C41.9396 95.0806 39.8958 95.2044 37.9371 95.5602C32.2465 96.4825 26.5579 97.4029 20.8693 98.3233C19.2702 98.5746 17.6769 98.884 16.0585 99H15.6582C11.9689 98.9149 8.36859 96.8673 6.53361 93.6459C5.63255 92.1706 5.25357 90.4593 5.01574 88.7674C4.62902 86.3736 4.24617 83.9779 3.84978 81.5861C3.7705 81.0563 3.66996 80.453 4.0122 79.9909C4.43566 79.3373 5.41792 79.1594 6.03474 79.6409C6.43306 79.9116 6.59548 80.3892 6.67283 80.8436C7.16589 83.7923 7.59322 86.7565 8.12495 89.6994C8.63349 92.4993 10.7856 94.9008 13.5061 95.7245C15.2135 96.3007 17.0408 96.0397 18.7713 95.7264C26.0281 94.5392 33.2945 93.4003 40.5494 92.188C43.56 91.6949 46.1297 89.3088 46.8452 86.3427C47.2474 84.8558 47.0366 83.305 46.7775 81.8142C45.5883 74.5226 44.4301 67.2253 43.2313 59.9376C42.9161 58.0001 41.9242 56.1651 40.3696 54.9489C38.61 53.4909 36.2085 52.9341 33.9713 53.3227C26.264 54.566 18.5548 55.7977 10.8513 57.0662C7.86779 57.5225 5.28064 59.8099 4.49367 62.7277C4.11082 64.0174 4.16689 65.3884 4.38152 66.7051C4.74503 68.9017 6.54852 80.1321 6.9159 82.3267C6.99325 82.8643 7.10733 83.4753 6.76315 83.949C6.33969 84.618 5.32456 84.7959 4.70774 84.2912C4.20694 83.9316 4.12379 83.28 4.02711 82.7173C3.652 80.2655 1.76343 68.7895 1.39605 66.3358C0.937788 63.2227 1.95099 59.9472 4.07214 57.6269C5.70603 55.7919 7.9954 54.5718 10.4221 54.1967C18.1468 52.9399 25.8715 51.6946 33.5962 50.4475Z" fill="#C51D38"/>
<path d="M61.9291 51.2963C62.8727 51.1861 63.824 51.2112 64.7734 51.2093C71.7344 51.2093 78.6953 51.2112 85.6562 51.2093C86.9556 51.1996 88.2724 51.1977 89.5389 51.5322C92.5978 52.2747 95.2662 54.4442 96.6274 57.2827C97.3893 58.8238 97.7296 60.5485 97.718 62.2617C97.7199 68.9674 97.718 75.6712 97.7199 82.3769C97.6851 84.703 97.9287 87.118 97.0644 89.3359C95.6374 93.4235 91.5402 96.3935 87.205 96.4341C79.2135 96.4554 71.222 96.4438 63.2304 96.4399C60.3126 96.4496 57.4354 95.1889 55.438 93.0677C53.5528 91.1032 52.4854 88.3961 52.4893 85.6775C52.4874 82.6669 52.468 79.6563 52.497 76.6476C52.4835 75.8026 53.3053 75.0795 54.1445 75.2322C54.8773 75.3212 55.4226 76.0308 55.3723 76.7617C55.4032 79.7684 55.351 82.7771 55.3974 85.7839C55.44 88.0674 56.5015 90.3162 58.2901 91.7451C59.7557 92.9942 61.6971 93.5608 63.6036 93.5434C71.4095 93.5337 79.2135 93.5646 87.0175 93.5279C90.2292 93.5298 93.292 91.3565 94.3323 88.3169C94.8118 87.0368 94.8331 85.6504 94.8195 84.3008C94.8176 77.7923 94.8176 71.2819 94.8176 64.7715C94.8002 63.476 94.8814 62.1747 94.7113 60.8869C94.3903 58.4138 92.7873 56.1515 90.5656 55.0184C89.303 54.3301 87.8509 54.1019 86.4277 54.1097C78.7572 54.1174 71.0885 54.1019 63.4199 54.1174C61.6062 54.1135 59.7789 54.6878 58.3674 55.8402C56.5634 57.2479 55.467 59.485 55.4032 61.7667C55.3317 64.5066 55.4284 76.2484 55.3568 78.9883C55.3375 79.8565 54.3939 80.5178 53.5663 80.2703C52.9012 80.1156 52.4719 79.4466 52.4912 78.7814C52.4796 76.1479 52.4796 64.5124 52.4912 61.8769C52.5086 59.3942 53.4194 56.9308 55.03 55.0416C56.7529 52.9882 59.2646 51.6153 61.9291 51.2963Z" fill="#C51D38"/>
<path d="M74.7315 64.5163C76.6071 64.3036 78.6625 64.5801 80.1784 65.7848C81.3734 66.7129 81.9767 68.312 81.7311 69.8008C81.6576 70.2688 81.2883 70.6652 80.8107 70.7251C80.1262 70.814 79.2696 70.8605 78.7572 70.3132C78.4459 69.7622 78.5465 69.0719 78.2448 68.5092C77.9548 67.7725 77.1581 67.3838 76.406 67.3239C75.5668 67.2272 74.6058 67.3587 74.0064 68.0103C73.4128 68.6407 73.3238 69.5591 73.32 70.3848C73.3219 72.6413 73.3122 74.8978 73.3238 77.1562C73.3296 78.0438 73.5462 79.0434 74.3293 79.5732C75.1917 80.1224 76.3344 80.1359 77.2703 79.7704C78.0863 79.4495 78.3976 78.5388 78.5001 77.7382C78.56 77.2626 78.647 76.6728 79.1729 76.4949C79.8671 76.259 80.7256 76.2146 81.3598 76.6361C81.8645 77.1195 81.8046 77.8871 81.7485 78.5252C81.6131 79.9619 80.714 81.2651 79.463 81.969C78.0167 82.7965 76.2745 82.988 74.6406 82.7811C73.1981 82.5954 71.7654 81.8819 70.9706 80.627C70.1875 79.434 70.0754 77.9625 70.0677 76.5762C70.0735 74.5072 70.0599 72.4383 70.0715 70.3713C70.0909 68.9771 70.3094 67.5037 71.1949 66.3764C72.0303 65.2704 73.3857 64.6904 74.7315 64.5163Z" fill="#C51D38"/>
<path d="M24.5586 66.0941C25.916 65.7828 27.5035 65.7441 28.6481 66.6549C29.8373 67.6468 30.3052 69.2652 30.3342 70.7657C30.371 71.8311 29.8895 72.8501 29.0987 73.5539C30.2646 73.6835 31.4422 74.221 32.0087 75.3019C32.701 76.6419 33.0393 78.1791 33.0084 79.6853C32.9543 80.8513 32.4109 82.0018 31.4673 82.7056C30.3381 83.5893 28.8879 83.831 27.5421 84.2022C26.351 84.4981 25.1735 84.8577 23.9746 85.1168C23.3559 85.2831 22.5515 84.9989 22.4529 84.295C21.1767 79.4591 19.916 74.6193 18.6399 69.7834C18.5277 69.3329 18.3653 68.8862 18.3653 68.4183C18.4871 67.7686 19.1774 67.4863 19.7478 67.3413C21.3527 66.9294 22.9479 66.4847 24.5586 66.0941ZM21.9598 69.7138C22.3195 71.0828 22.6772 72.4518 23.0407 73.8208C24.1177 73.4978 25.2528 73.3412 26.2795 72.8752C27.9772 72.0341 27.2154 68.9462 25.3359 68.9404C24.1777 69.0196 23.0833 69.4566 21.9598 69.7138ZM23.6865 76.2977C24.1796 78.1578 24.663 80.0199 25.1561 81.8819C26.3143 81.5377 27.5325 81.3618 28.6327 80.8455C29.2476 80.5767 29.6323 79.9251 29.6768 79.2696C29.6884 78.2332 29.4061 77.2045 28.9072 76.2996C28.5341 75.6731 27.7587 75.3541 27.0491 75.4875C25.9024 75.6364 24.8061 76.0231 23.6865 76.2977Z" fill="#C51D38"/>
</g>
<defs>
<clipPath id="clip0_29_39">
<rect width="99" height="99" fill="white"/>
</clipPath>
</defs>
</svg>
