<svg width="99" height="91" viewBox="0 0 99 91" fill="none" xmlns="http://www.w3.org/2000/svg">
<path d="M48.9876 1.50365C49.618 1.29037 50.3837 1.51432 50.7627 2.02797C51.0798 2.41365 51.043 2.92197 51.0527 3.38053C51.0314 5.10455 51.0682 6.8268 51.0372 8.54904C51.0643 9.43061 50.0492 10.1504 49.1288 9.90871C48.4617 9.76653 47.9512 9.17822 47.9628 8.54727C47.9396 6.70416 47.9589 4.85928 47.9531 3.0144C47.8971 2.371 48.3031 1.70627 48.9876 1.50365Z" fill="#C51D38"/>
<path d="M33.9192 7.36173C34.5089 7.21599 35.118 7.46482 35.5124 7.86828C36.8563 9.13197 38.2291 10.3708 39.5711 11.6362C40.1627 12.1588 40.1531 13.1097 39.5633 13.6304C38.9948 14.1743 37.9526 14.1832 37.39 13.6286C35.9688 12.3259 34.5534 11.016 33.1477 9.69894C32.3278 8.97201 32.8093 7.55902 33.9192 7.36173Z" fill="#C51D38"/>
<path d="M64.2746 7.40086C64.9939 7.18047 65.8467 7.53416 66.1444 8.17401C66.4209 8.7161 66.2604 9.39149 65.7886 9.79672C64.5047 10.9929 63.1957 12.1677 61.9137 13.3656C61.5734 13.6696 61.2215 14.0215 60.7284 14.0908C59.9937 14.2383 59.1932 13.8153 58.965 13.1577C58.7446 12.6138 58.9611 11.9953 59.4194 11.6149C60.7478 10.4028 62.08 9.1942 63.3987 7.97494C63.6578 7.74567 63.9227 7.49861 64.2746 7.40086Z" fill="#C51D38"/>
<path d="M41.7599 15.7988C45.513 14.1299 49.9119 13.7531 53.9434 14.7146C57.946 15.6477 61.5483 17.9263 63.9594 21.0029C65.8041 23.3312 66.9333 26.1145 67.262 28.976C73.5733 27.8048 79.9986 27.1738 86.4317 27.0174C88.6766 26.9392 90.8113 28.521 91.1786 30.5614C91.3565 31.7736 91.2251 32.9999 91.2695 34.2192C93.6711 34.6724 95.7883 36.2205 96.7745 38.2893C97.2598 39.2651 97.4648 40.3421 97.4532 41.4139C97.4512 54.5698 97.4532 67.7275 97.4532 80.8834C97.4802 82.5487 96.8789 84.2177 95.7303 85.5098C94.255 87.2178 91.8902 88.2096 89.5216 88.1562C62.8399 88.1562 36.1582 88.1562 9.47851 88.1562C7.61839 88.1847 5.74667 87.6053 4.32548 86.4962C2.58718 85.1774 1.54304 83.1317 1.55077 81.0575C1.5411 67.843 1.54884 54.6267 1.5469 41.4121C1.49083 39.361 2.44216 37.31 4.11472 35.9468C5.12599 35.0936 6.40216 34.5409 7.73247 34.2601C7.81175 32.8631 7.53718 31.4199 7.9761 30.0602C8.58325 28.2758 10.5304 26.973 12.5684 27.0192C19.0111 27.1667 25.4365 27.8439 31.7574 28.9902C31.7535 27.7141 32.1325 26.4717 32.5617 25.2703C34.0835 21.1486 37.4808 17.6579 41.7599 15.7988ZM43.8578 18.1058C40.1666 19.4975 37.156 22.3252 35.7193 25.7466C34.4895 28.6241 34.3658 31.8909 35.4119 34.8324C36.3342 37.5055 38.2059 39.8729 40.6442 41.5507C43.1056 43.2765 44.6602 46.035 44.7531 48.8805C44.7337 49.6021 45.0064 50.3664 45.6773 50.7894C46.3212 51.2604 47.1817 51.1857 47.9532 51.191C47.9532 48.0434 47.9512 44.8957 47.9532 41.748C45.4975 39.0322 43.0244 36.3271 40.5746 33.606C40.0293 33.0373 40.126 32.0864 40.7679 31.6154C41.1411 31.2972 41.6728 31.2724 42.1543 31.2777C47.1894 31.2919 52.2264 31.2652 57.2634 31.2901C58.1432 31.2795 58.8799 32.0828 58.7445 32.8791C58.7039 33.3252 58.3598 33.67 58.031 33.9704C56.345 35.4989 54.6821 37.0505 52.9998 38.5826C52.4391 39.1389 51.3988 39.1549 50.8226 38.6128C50.2039 38.0938 50.1981 37.1145 50.8129 36.5919C51.6947 35.7601 52.6015 34.9532 53.4871 34.1268C50.6776 34.125 47.87 34.1232 45.0605 34.1268C46.9322 36.192 48.8175 38.2484 50.6795 40.3208C51.0662 40.7154 51.0566 41.2681 51.0527 41.7676C51.0411 44.9099 51.0488 48.0505 51.0469 51.191C51.8165 51.1875 52.675 51.2533 53.3169 50.784C53.9879 50.3593 54.2451 49.5914 54.2315 48.8716C54.3166 45.9763 55.9389 43.1806 58.4661 41.4636C61.9021 39.066 64.0851 35.2323 64.2534 31.2688C64.4312 27.8723 63.1473 24.4385 60.742 21.8578C58.7755 19.7285 56.0917 18.1591 53.141 17.4784C50.0801 16.7568 46.7717 16.9843 43.8578 18.1058ZM10.8746 31.1053C10.7972 31.5745 10.8301 32.0508 10.8262 32.5236C10.8359 47.224 10.8185 61.9244 10.834 76.6266C10.7914 77.5651 11.7795 78.308 12.7714 78.212C24.781 78.3791 36.7499 80.5368 47.9512 84.5162C47.9551 76.2498 47.9532 67.9834 47.9532 59.717C47.317 59.7116 46.677 59.7596 46.0466 59.6725C45.2964 59.5303 44.7608 58.8105 44.8749 58.1174C44.9522 57.4366 45.6309 56.8732 46.3773 56.8839C48.2509 56.8554 50.1265 56.8892 52.0021 56.8697C52.5474 56.8714 53.1623 56.8483 53.5915 57.2145C54.3127 57.7423 54.3089 58.8603 53.5838 59.3846C52.8703 59.9142 51.8861 59.6636 51.0469 59.717C51.0469 67.9781 51.045 76.2392 51.0488 84.502C62.2579 80.5297 74.2307 78.3826 86.2441 78.2102C87.2283 78.2955 88.1932 77.5508 88.1506 76.6195C88.1661 61.6223 88.1526 46.6233 88.1564 31.6243C88.2609 30.7303 87.4545 29.822 86.4491 29.8665C80.0373 30.0211 73.6352 30.6787 67.3548 31.8784C67.0435 35.9663 65.0036 39.9174 61.7223 42.6971C60.9024 43.4294 59.9028 43.9768 59.1545 44.7802C58.2515 45.7328 57.6424 46.9201 57.4278 48.1713C57.3021 48.9125 57.3601 49.6785 57.1416 50.409C56.7046 51.9375 55.411 53.2314 53.7829 53.7451C52.6576 54.1343 51.4414 54.0135 50.2657 54.0312C49.036 54.0135 47.8023 54.0686 46.5726 54.0028C44.5346 53.8588 42.6918 52.5045 42.0499 50.7272C41.7018 49.858 41.8121 48.9143 41.6322 48.0167C41.4215 46.9699 40.9419 45.971 40.2439 45.1214C39.3738 44.0195 38.0435 43.353 37.0206 42.3896C33.9153 39.6454 31.9971 35.8224 31.6916 31.8767C25.39 30.7072 18.9802 30.0104 12.5529 29.8683C11.7679 29.8416 11.0157 30.3943 10.8746 31.1053ZM91.2715 37.1731C91.256 50.3148 91.2734 63.4565 91.2637 76.5982C91.3275 78.9052 89.1522 81.0042 86.6386 81.0415C76.9377 81.2601 67.2698 82.6909 57.9924 85.3089C68.5672 85.316 79.142 85.3143 89.7188 85.3089C92.1957 85.3694 94.4155 83.329 94.3555 81.0522C94.3652 68.1362 94.3555 55.2221 94.3613 42.3061C94.3652 41.4014 94.4155 40.4594 94.0133 39.6099C93.5357 38.4759 92.4877 37.6121 91.2715 37.1731ZM5.00224 39.6117C4.56331 40.5128 4.63872 41.517 4.64065 42.4785C4.64065 54.8008 4.64065 67.1249 4.64065 79.4473C4.66386 80.5243 4.50724 81.6565 4.99257 82.6731C5.67319 84.2372 7.4405 85.3285 9.27354 85.3089C19.8484 85.3125 30.4213 85.3196 40.9942 85.3054C31.7168 82.6945 22.0507 81.2619 12.3518 81.0415C9.84782 81.0007 7.67253 78.9087 7.73634 76.6088C7.72667 63.4778 7.74407 50.3468 7.7286 37.214C6.52591 37.6512 5.48563 38.4955 5.00224 39.6117Z" fill="#C51D38"/>
<path d="M16.4801 35.6198C16.9054 35.4794 17.3637 35.5576 17.8026 35.5789C19.7304 35.7247 21.6601 35.8686 23.5763 36.1068C24.5103 36.2188 25.1097 37.2336 24.7307 38.021C24.4755 38.6502 23.7136 39.0057 23.004 38.9061C21.2019 38.7497 19.4056 38.5418 17.5977 38.4458C16.9344 38.4049 16.1591 38.3392 15.7608 37.7757C15.1652 37.0612 15.5539 35.9077 16.4801 35.6198Z" fill="#C51D38"/>
<path d="M16.4839 41.4637C16.8397 41.3428 17.2264 41.389 17.5958 41.4068C21.4088 41.6734 25.218 42.0555 28.9808 42.6883C29.9766 42.8873 30.4445 44.1013 29.8431 44.8477C29.4255 45.4609 28.5631 45.5569 27.8515 45.4289C24.4581 44.9117 21.0395 44.5314 17.6074 44.3163C16.9113 44.2737 16.0876 44.151 15.7047 43.5414C15.1826 42.8198 15.5945 41.7392 16.4839 41.4637Z" fill="#C51D38"/>
<path d="M16.482 51.4026C17.035 51.2391 17.6209 51.367 18.1855 51.3901C26.2892 51.9358 34.3213 53.3452 42.0828 55.5456C42.8098 55.702 43.3667 56.3542 43.2893 57.0474C43.2468 57.8206 42.4095 58.4693 41.5723 58.3413C40.6925 58.1796 39.8514 57.8934 38.9871 57.6784C32.0745 55.8815 24.9627 54.7191 17.793 54.2819C17.1471 54.2214 16.3872 54.2712 15.9096 53.7895C15.1227 53.0982 15.4359 51.7172 16.482 51.4026Z" fill="#C51D38"/>
<path d="M78.6045 51.6852C79.7298 51.607 80.8532 51.4915 81.9805 51.4524C82.8526 51.4115 83.6067 52.1846 83.5177 52.9738C83.4771 53.6918 82.7714 54.2766 81.9979 54.2908C77.22 54.5876 72.4614 55.1475 67.7667 56.029C64.147 56.676 60.5969 57.6002 57.0526 58.5297C56.3778 58.6364 55.703 58.1405 55.5115 57.5575C55.2563 56.8661 55.6856 56.0219 56.4532 55.8015C63.6578 53.7345 71.0905 52.341 78.6045 51.6852Z" fill="#C51D38"/>
<path d="M16.4974 58.3786C17.0369 58.2275 17.6054 58.3431 18.1545 58.3697C26.2389 58.9083 34.2498 60.3088 41.9957 62.5003C42.8543 62.6887 43.3087 63.6609 42.9451 64.3843C42.6512 65.0543 41.7656 65.4204 41.027 65.1627C33.2907 62.9873 25.2798 61.6454 17.209 61.1566C16.6038 61.1584 15.9676 60.9309 15.6757 60.4154C15.1923 59.6885 15.6235 58.6452 16.4974 58.3786Z" fill="#C51D38"/>
<path d="M79.958 58.4355C80.7044 58.3964 81.4469 58.2808 82.1952 58.3164C83.1832 58.4017 83.8291 59.4912 83.3843 60.307C83.1214 60.8829 82.4388 61.1601 81.7911 61.1673C74.3506 61.6311 66.9623 62.822 59.8003 64.7344C58.8219 64.9708 57.8667 65.3493 56.8477 65.4009C55.7494 65.3671 55.0591 64.0945 55.6566 63.2539C56.0356 62.614 56.8883 62.5465 57.5689 62.3474C64.8528 60.3159 72.3725 59.0025 79.958 58.4355Z" fill="#C51D38"/>
<path d="M16.4974 65.488C17.0388 65.3352 17.6131 65.4543 18.1661 65.4792C26.3008 66.023 34.3638 67.4396 42.1562 69.6524C42.9161 69.8283 43.4711 70.5446 43.3589 71.268C43.2816 72.0482 42.4308 72.681 41.5819 72.5619C40.8588 72.4375 40.1685 72.194 39.4647 72.0073C32.1615 70.0043 24.6166 68.7584 17.0176 68.25C16.1204 68.2607 15.3469 67.4698 15.4881 66.6504C15.55 66.1279 15.9638 65.6658 16.4974 65.488Z" fill="#C51D38"/>
<path d="M81.4411 65.6018C82.1043 65.5111 82.8719 65.6373 83.2529 66.1972C83.8658 66.9526 83.3747 68.1736 82.3692 68.3673C81.3444 68.5291 80.2983 68.5308 79.2658 68.6215C72.4499 69.1902 65.6881 70.3508 59.1216 72.1317C58.2457 72.3699 57.2982 72.7254 56.3875 72.4126C55.4942 72.0926 55.1481 70.9658 55.7282 70.2637C56.1361 69.7003 56.925 69.6559 57.5651 69.4622C65.3323 67.3542 73.3587 66.0674 81.4411 65.6018Z" fill="#C51D38"/>
</svg>
