<svg width="99" height="99" viewBox="0 0 99 99" fill="none" xmlns="http://www.w3.org/2000/svg">
<g clip-path="url(#clip0_29_79)">
<path d="M49.0746 0H49.6296C50.0723 0.0502734 50.5055 0.156621 50.9289 0.297773C66.0767 5.71184 81.2264 11.122 96.3742 16.5361C97.8379 16.9054 98.9884 18.2338 99 19.7691V19.8773C98.9497 21.2115 98.0699 22.4626 96.8015 22.9015C94.0655 23.8915 91.3256 24.8718 88.5837 25.8444C88.8912 26.5966 89.1193 27.3952 89.1 28.215C89.0961 29.8334 89.1135 31.4538 89.0923 33.0722C89.1 34.7254 87.6788 36.2201 86.0237 36.2839C84.8036 36.3168 83.5815 36.309 82.3634 36.2897C80.7449 36.2665 79.2928 34.8724 79.2193 33.2539C79.1633 31.9062 79.2174 30.5546 79.2 29.2069C77.5526 29.8025 75.8994 30.3806 74.25 30.9684C74.2461 34.3812 74.2577 37.7921 74.2461 41.2049C74.2751 42.2548 73.6119 43.1771 72.8114 43.792C71.483 44.8149 69.8723 45.3737 68.2829 45.8416C64.6168 46.851 60.8212 47.2706 57.0391 47.5587C50.0066 48.0711 42.918 47.8913 35.932 46.9128C32.9291 46.412 29.845 45.89 27.1361 44.4243C25.9488 43.765 24.7229 42.6763 24.7539 41.2029C24.7423 37.7882 24.7558 34.3735 24.7481 30.9588C17.2825 28.2923 9.81879 25.6259 2.35318 22.9614C1.05961 22.5631 0.129551 21.3585 0 20.0204V19.7807C0.0348047 18.4368 0.897187 17.151 2.18109 16.7063C16.946 11.4256 31.7129 6.15076 46.4797 0.875918C47.3402 0.572344 48.191 0.232031 49.0746 0ZM4.06441 19.5235C3.83625 19.6086 3.62162 19.7207 3.40699 19.8348C10.5188 22.3833 17.6382 24.9086 24.7481 27.457C24.7597 25.974 24.7326 24.489 24.7597 23.0059C24.7616 22.2982 25.1077 21.6408 25.5737 21.1264C26.5115 20.1074 27.8109 19.5293 29.0774 19.0362C32.03 17.9708 35.1547 17.5087 38.2581 17.1278C43.4614 16.5612 48.7111 16.3679 53.9415 16.6115C58.1432 16.7991 62.3545 17.1761 66.477 18.0462C68.5169 18.5316 70.5955 19.0865 72.3744 20.2389C73.318 20.8596 74.2191 21.809 74.2403 23.0059C74.2674 24.489 74.2384 25.974 74.2519 27.459C76.0482 26.8209 77.8446 26.1809 79.6409 25.5408C80.0372 25.4403 80.2171 25.0439 80.48 24.7713C81.0079 24.1293 81.7446 23.7097 82.4987 23.3849C82.5045 20.6198 82.4948 17.8529 82.5026 15.0878C71.5101 11.1491 60.5157 7.2123 49.5135 3.30064C34.3696 8.72437 19.2161 14.123 4.06441 19.5235ZM85.7994 16.2673C85.7994 18.6224 85.7994 20.9795 85.8013 23.3365C89.0981 22.1609 92.3948 20.9834 95.6897 19.8019C92.3968 18.6108 89.0981 17.4429 85.7994 16.2673ZM31.9971 21.5808C30.6301 21.9714 29.176 22.3059 28.0448 23.2186C28.0584 28.0178 28.0448 32.8189 28.0506 37.6181C30.3768 36.6184 32.8672 36.0809 35.3558 35.6767C43.7398 34.4334 52.2824 34.3638 60.7032 35.2765C64.1798 35.7057 67.7067 36.2278 70.9494 37.6161C70.9532 32.817 70.9436 28.0158 70.9552 23.2167C69.503 22.1029 67.6448 21.7684 65.9162 21.3179C59.8331 20.0166 53.5799 19.7323 47.3769 19.8232C42.2162 19.9489 37.0225 20.3433 31.9971 21.5808ZM82.5084 28.0526C82.4794 29.6942 82.5219 31.3378 82.489 32.9813C83.5912 33.02 84.6953 32.991 85.7994 33.0006C85.7916 31.3416 85.8148 29.6826 85.7916 28.0255C85.7994 27.2018 85.1071 26.4554 84.2834 26.409C83.3611 26.3065 82.4736 27.1206 82.5084 28.0526ZM31.3262 39.9152C30.2356 40.2516 29.0851 40.5513 28.1763 41.2784C29.4196 42.0827 30.866 42.4733 32.2852 42.8388C37.8482 44.1575 43.5929 44.5055 49.2931 44.5481C54.74 44.5365 60.214 44.2136 65.5585 43.1114C67.3625 42.6821 69.2323 42.2838 70.8217 41.2784C69.532 40.3 67.8885 39.9906 66.359 39.5671C60.0787 38.1595 53.605 37.8752 47.1874 37.9758C41.8604 38.1227 36.4908 38.5288 31.3262 39.9152Z" fill="#C51D38"/>
<path d="M3.07828 52.2071C3.63322 51.5284 4.49367 50.9908 5.40246 51.1977C9.93867 51.8668 14.4846 52.499 19.0498 52.9457C32.4998 54.4075 46.0524 54.6666 59.5682 54.3244C70.8952 53.9802 82.2029 52.9534 93.4022 51.2229C94.1602 51.0392 94.9723 51.2538 95.5311 51.8029C96.7338 52.9515 97.283 54.5893 97.7277 56.1497C98.7583 60.1174 98.9072 64.2418 99 68.3178V70.3229C98.9053 74.3544 98.7564 78.4324 97.7528 82.3595C97.341 83.8426 96.8286 85.3643 95.7922 86.5361C95.2469 87.1587 94.4193 87.5918 93.5763 87.4004C83.4984 85.8033 73.3199 84.8287 63.1222 84.4613C64.1818 87.0485 65.2994 89.6144 66.3339 92.2131C67.0048 93.9592 65.8331 96.0803 64.0116 96.467C62.8379 96.8054 61.7087 96.2137 60.6646 95.7555C60.2836 96.5927 60.0014 97.5305 59.2898 98.1589C58.7948 98.6191 58.1432 98.855 57.4935 99H56.6698C55.5347 98.8009 54.4848 98.0719 54.0439 96.9891C53.0655 94.692 52.122 92.3813 51.1494 90.0823C50.1806 92.3833 49.2351 94.692 48.2567 96.9891C47.8236 98.068 46.7852 98.7835 45.6657 99H44.8323C44.173 98.8627 43.5136 98.621 43.0147 98.1531C42.2993 97.5247 42.0189 96.583 41.638 95.7439C40.7002 96.1344 39.7334 96.6797 38.6777 96.525C37.1907 96.3781 35.9281 95.0884 35.8024 93.6014C35.7154 92.9305 35.9107 92.2673 36.1717 91.6582C37.2004 89.2199 38.202 86.7701 39.2384 84.3357C27.9076 84.5909 16.5999 85.6466 5.40439 87.3965C4.41246 87.6286 3.50174 86.975 2.93906 86.219C1.92586 84.8616 1.44053 83.1987 1.05187 81.5745C0.232031 77.8813 0.0792773 74.0837 0 70.3132V68.1341C0.0947461 64.2205 0.249434 60.2702 1.19109 56.4532C1.58941 54.9566 2.08055 53.4233 3.07828 52.2071ZM58.1915 57.6366C58.9611 60.9759 59.3381 64.3964 59.3807 67.8208C62.6117 71.0093 63.6191 76.1972 61.7841 80.3525C61.6546 80.5806 61.4747 81.1046 61.8924 81.1046C72.5658 81.4449 83.2083 82.4871 93.7696 84.0514C94.8718 81.2477 95.185 78.2158 95.4673 75.24C95.8134 70.5317 95.7786 65.7867 95.243 61.0939C94.9453 58.8722 94.6378 56.6099 93.7464 54.5351C81.9747 56.3082 70.0947 57.3659 58.1915 57.6366ZM8.28545 54.9972C8.82685 56.6543 9.16137 58.3733 9.3876 60.1C9.89227 64.0871 9.94834 68.1147 9.85553 72.1269C9.71438 75.9864 9.47074 79.9039 8.28545 83.6067C18.4832 82.2145 28.7525 81.3289 39.0431 81.0331C39.6116 81.0099 40.1917 81.0447 40.7505 80.8977C39.2133 77.7498 39.2094 73.8885 40.824 70.7715C41.0019 70.4002 41.2745 70.0425 41.2474 69.6094C41.346 65.5663 40.9303 61.5019 39.8862 57.5921C29.3133 57.3156 18.7636 56.4146 8.28545 54.9972ZM4.94227 55.2892C3.70477 59.8177 3.14016 64.5279 3.29484 69.2208C3.13242 73.9658 3.69316 78.7282 4.9384 83.3109C6.23197 78.7418 6.74631 73.9677 6.60516 69.2266C6.74437 64.5337 6.2107 59.8119 4.94227 55.2892ZM43.3512 57.6849C43.9989 60.5737 44.3876 63.5205 44.4804 66.4789C47.7636 64.1083 52.3018 63.6868 55.9679 65.4096C55.8499 62.8051 55.4477 60.2179 54.7787 57.7004C50.9695 57.7487 47.1604 57.7719 43.3512 57.6849ZM49.587 67.8015C46.6576 68.3429 44.1343 70.5955 43.2758 73.4476C42.5739 75.6848 42.8813 78.2178 44.1207 80.2113C45.4259 82.3595 47.7617 83.8465 50.2657 84.0959C52.6614 84.3666 55.1519 83.51 56.8747 81.8259C58.6382 80.1398 59.5818 77.6435 59.3633 75.213C59.1873 72.9197 57.9885 70.7348 56.1554 69.3484C54.3224 67.9175 51.8648 67.3626 49.587 67.8015ZM42.9451 84.0282C41.6573 87.1162 40.3618 90.2022 39.0837 93.294C40.0505 92.8879 40.9883 92.4161 41.9667 92.0391C42.7305 91.7336 43.6663 92.1435 43.9912 92.8918C44.4224 93.8045 44.7936 94.7461 45.2074 95.6665C46.4411 92.8667 47.5799 90.0243 48.771 87.207C46.5745 86.7314 44.5345 85.6138 42.9451 84.0282ZM53.5335 87.2186C54.5196 89.5912 55.5154 91.9598 56.5015 94.3343C56.6698 94.7616 56.8399 95.1947 57.0971 95.5834C57.538 94.6552 57.9053 93.6962 58.3675 92.7797C58.7194 92.099 59.6011 91.7587 60.3185 92.0333C61.2988 92.4026 62.2424 92.8589 63.215 93.2457C61.9272 90.1732 60.6452 87.0968 59.3575 84.0224C57.7661 85.6138 55.7242 86.7159 53.5335 87.2186Z" fill="#C51D38"/>
</g>
<defs>
<clipPath id="clip0_29_79">
<rect width="99" height="99" fill="white"/>
</clipPath>
</defs>
</svg>
