<svg width="30" height="29" viewBox="0 0 30 29" fill="none" xmlns="http://www.w3.org/2000/svg">
<path d="M0 3.36869C0 2.39224 0.337847 1.58668 1.01351 0.95202C1.68918 0.31733 2.56758 0 3.64865 0C4.71043 0 5.56949 0.312438 6.22587 0.937374C6.90153 1.58182 7.23938 2.42153 7.23938 3.45657C7.23938 4.39394 6.91121 5.17506 6.25483 5.8C5.57916 6.44444 4.69112 6.76667 3.59073 6.76667H3.56178C2.49999 6.76667 1.64094 6.44444 0.984556 5.8C0.328176 5.15556 0 4.34511 0 3.36869ZM0.376448 29V9.43232H6.80502V29H0.376448ZM10.3668 29H16.7954V18.0737C16.7954 17.3902 16.8726 16.8629 17.027 16.4919C17.2973 15.8279 17.7075 15.2665 18.2577 14.8076C18.8079 14.3486 19.4981 14.1192 20.3282 14.1192C22.4904 14.1192 23.5714 15.5936 23.5714 18.5424V29H30V17.7808C30 14.8906 29.3243 12.6985 27.973 11.2045C26.6216 9.71061 24.8359 8.96364 22.6158 8.96364C20.1255 8.96364 18.1853 10.0475 16.7954 12.2152V12.2737H16.7664L16.7954 12.2152V9.43232H10.3668C10.4054 10.0572 10.4247 12.0003 10.4247 15.2616C10.4247 18.5229 10.4054 23.1023 10.3668 29Z" fill="white"/>
</svg>
