<svg width="34" height="48" viewBox="0 0 34 48" fill="none" xmlns="http://www.w3.org/2000/svg">
<path d="M24.7387 3.81665L24.7847 3.85422L24.8342 3.88725C25.1701 4.11173 25.4439 4.42145 25.6279 4.78682C25.6512 4.89287 25.6474 5.00377 25.6164 5.10846C25.5794 5.23294 25.5065 5.3406 25.4098 5.41841L25.4074 5.42034C25.0109 5.74102 24.6032 6.05259 24.1809 6.37401C24.1516 6.39624 24.1224 6.41853 24.093 6.44087C23.7022 6.73819 23.2987 7.04525 22.9014 7.36202L22.8481 7.40445L22.7998 7.45241C22.5873 7.66342 22.316 7.79794 22.0266 7.83979C22.0224 7.83888 22.0162 7.83732 22.0079 7.83467C21.9773 7.82487 21.9241 7.80245 21.8377 7.75059C21.7481 7.69682 21.6518 7.62961 21.5178 7.53353C21.506 7.52507 21.4938 7.51629 21.4812 7.50723C21.3647 7.42359 21.2146 7.31571 21.0599 7.21791L21.0599 7.21786L21.0496 7.21149C20.2384 6.70952 19.3299 6.3878 18.3846 6.26854C17.4393 6.14928 16.4798 6.23537 15.5705 6.52077C14.6611 6.80615 13.8234 7.28407 13.1129 7.92181C12.4024 8.55951 11.8355 9.34223 11.449 10.2172C11.0626 11.0922 10.8652 12.0398 10.8697 12.9971C10.8741 13.9544 11.0803 14.9002 11.4749 15.7715C11.8695 16.6429 12.4438 17.4202 13.1602 18.0511C13.8767 18.682 14.7189 19.152 15.6309 19.4287L15.7364 19.4607L15.8459 19.4738C17.6702 19.6911 19.5072 19.7788 21.3435 19.7361C21.4327 19.7668 21.5147 19.8201 21.5813 19.8933C21.6567 19.9762 21.7083 20.0805 21.7286 20.1941C21.7091 20.528 21.6039 20.8506 21.424 21.1298L21.3898 21.183L21.3611 21.2393C21.1294 21.6939 20.9208 22.1209 20.7163 22.5395C20.447 23.0907 20.1848 23.6274 19.8865 24.1934L19.8745 24.2162L19.8634 24.2394C19.8244 24.3215 19.7667 24.3909 19.6967 24.4425C19.6506 24.4764 19.6001 24.5021 19.5471 24.5189C17.3874 24.4023 15.2215 24.5599 13.1002 24.9882L13.0158 25.0052L12.9345 25.0337C11.0785 25.6835 9.50413 26.9598 8.47429 28.6438C7.44464 30.3275 7.02131 32.3171 7.27382 34.2777C7.52634 36.2384 8.43982 38.0535 9.86354 39.416C11.2875 40.7788 13.1349 41.6051 15.0947 41.7522L15.0978 41.7524C19.3435 42.0607 23.5662 40.9086 27.0808 38.4854L27.1316 38.4504L27.1787 38.4105C29.3334 36.5873 31.1581 34.406 32.5767 31.9646C32.3807 34.0719 31.7806 36.1253 30.8052 38.0081C29.5839 40.3651 27.8118 42.3824 25.6447 43.8848C22.7037 45.9144 19.1883 46.9125 15.636 46.7284L15.5913 46.7261L15.5465 46.727C11.9697 46.798 8.50632 45.442 5.90588 42.9479L5.87725 42.9205L5.84695 42.8949C3.94467 41.2891 3.12615 39.102 2.15308 36.0942C1.26759 33.3572 1.09696 28.6934 2.38685 25.2332C3.11194 23.4771 4.22485 22.025 5.1788 20.9995C5.65416 20.4884 6.08155 20.0924 6.38649 19.827C6.53872 19.6945 6.65974 19.5951 6.74009 19.5308C6.78025 19.4987 6.81019 19.4753 6.82871 19.4611L6.84777 19.4465L6.84876 19.4457L6.84925 19.4454L6.84966 19.4451L6.85026 19.4446L6.85058 19.4444L7.5402 18.9318L7.30612 18.103L7.30609 18.1029L7.30606 18.1028L7.30603 18.1027L7.30553 18.1009L7.3028 18.0912L7.29102 18.0485C7.28047 18.01 7.26471 17.9518 7.24464 17.876C7.20449 17.7243 7.14723 17.5023 7.0802 17.2262C6.9459 16.673 6.77371 15.9081 6.62145 15.0599C6.30445 13.2938 6.12165 11.4092 6.38179 10.2611C6.96456 7.68916 8.39453 5.39727 10.4332 3.76069C12.4715 2.12435 14.9975 1.23993 17.5956 1.25009C20.1936 1.26024 22.7128 2.16438 24.7387 3.81665Z" stroke="#C51D38" stroke-width="2.5"/>
</svg>
