<svg width="36" height="35" viewBox="0 0 36 35" fill="none" xmlns="http://www.w3.org/2000/svg">
<g clip-path="url(#clip0_335_840)">
<path d="M4.00957 0H31.9897C32.8825 0.0396484 33.7575 0.407422 34.396 1.03564C35.0639 1.67959 35.4576 2.58467 35.5 3.50957V31.4904C35.4556 32.5124 34.9723 33.5091 34.1786 34.1578C33.5688 34.6712 32.7868 34.9597 31.9932 35H4.00889C3.01836 34.9569 2.05313 34.5023 1.40371 33.7518C0.853418 33.1317 0.539648 32.3189 0.5 31.4932V3.5041C0.541699 2.63047 0.893066 1.77256 1.50146 1.14092C2.14541 0.449805 3.06826 0.0416992 4.00957 0ZM17.2774 1.45879C12.9154 1.45742 8.55342 1.45811 4.19072 1.45879C3.60283 1.44648 3.01357 1.67822 2.6 2.09795C2.17959 2.51016 1.94785 3.09941 1.95879 3.6873C1.95879 8.05068 1.95674 12.4141 1.95947 16.7774C1.6334 16.7733 1.30596 16.7699 0.979883 16.7822C1.30664 16.8034 1.63477 16.7815 1.96289 16.7918C1.96084 17.2648 1.96016 17.7386 1.96426 18.2123C1.63613 18.213 1.30732 18.2014 0.979199 18.2191C1.30527 18.2349 1.63203 18.2212 1.95879 18.2267C1.96016 22.6324 1.954 27.0389 1.96221 31.4446C1.97793 32.5732 2.9958 33.5563 4.12305 33.5398C8.50693 33.5433 12.8915 33.5426 17.2761 33.5405C17.2802 33.8673 17.2645 34.194 17.2822 34.5208C17.2973 34.194 17.2884 33.8673 17.2904 33.5412C17.7635 33.5357 18.2365 33.5392 18.7103 33.5378C18.713 33.8646 18.7021 34.1913 18.7178 34.5181C18.7349 34.1927 18.7219 33.8666 18.7239 33.5412C23.1099 33.5412 27.4958 33.5439 31.8824 33.5398C32.7677 33.5426 33.6105 32.9444 33.9059 32.1105C34.0918 31.6374 34.0323 31.122 34.0419 30.6264C34.0412 26.492 34.0426 22.3576 34.0412 18.2239C34.3666 18.2205 34.6927 18.2342 35.0181 18.2219C34.6927 18.2007 34.3659 18.2123 34.0405 18.2096C34.0344 17.7372 34.0426 17.2642 34.0364 16.7918C34.3639 16.787 34.6913 16.7945 35.0187 16.7822C34.6934 16.7617 34.3666 16.7781 34.0405 16.7781C34.0426 12.4154 34.0419 8.05342 34.0412 3.69072C34.0556 3.01943 33.7466 2.34951 33.2168 1.93457C32.8224 1.61396 32.3131 1.45059 31.8072 1.45879C27.4452 1.45879 23.0832 1.45742 18.7219 1.45947C18.7171 1.13408 18.741 0.808008 18.7171 0.483301C18.7075 0.808008 18.7096 1.1334 18.7068 1.45879C18.2352 1.46357 17.7642 1.46357 17.2925 1.45947C17.2843 1.1334 17.2938 0.808008 17.2877 0.481934C17.2604 0.807324 17.2768 1.1334 17.2774 1.45879Z" fill="#C51D38"/>
<path d="M17.2716 1.4718C17.7569 1.48 18.243 1.48 18.7283 1.4718C18.7317 6.51877 18.729 11.5657 18.7304 16.6134C18.7194 16.6462 18.6989 16.7125 18.688 16.746C18.3079 16.8171 17.9107 16.7508 17.5238 16.7809C17.4151 16.8069 17.3126 16.7317 17.2695 16.6373C17.2729 11.5822 17.2688 6.52698 17.2716 1.4718Z" fill="#C51D38"/>
<path d="M8.52731 6.49143C8.54714 6.14895 8.84655 5.85569 9.18835 5.83724C9.54655 5.79827 9.9068 6.06351 9.96286 6.42171C10.021 7.65149 9.9362 8.88401 9.96901 10.1145C9.98474 9.66058 9.96286 9.2053 9.98268 8.7514C10.7203 8.7514 11.4572 8.74524 12.1941 8.75413C12.5339 8.75481 12.8435 9.0303 12.8852 9.36731C12.9645 9.78431 12.6125 10.2116 12.1866 10.2047C11.4524 10.2102 10.7175 10.2122 9.98337 10.2033C9.96901 10.9512 9.98952 11.6997 9.9738 12.4476C9.96149 12.7914 9.66823 13.0943 9.32507 13.1189C8.92722 13.1736 8.53005 12.8413 8.52526 12.4373C8.51569 11.6991 8.52048 10.9608 8.52321 10.2225C8.99284 10.2368 9.46247 10.2293 9.9321 10.2225C9.47067 10.1958 9.0072 10.228 8.54509 10.2095C8.53893 8.97015 8.50202 7.73079 8.52731 6.49143Z" fill="#C51D38"/>
<path d="M5.60674 9.49989C5.58213 9.11297 5.91778 8.75204 6.30606 8.7534C7.04297 8.74383 7.7792 8.75409 8.51612 8.7493C8.53389 9.23602 8.51612 9.72342 8.53116 10.2101C7.79151 10.2033 7.05118 10.2142 6.31153 10.2047C5.93623 10.2074 5.60537 9.87381 5.60674 9.49989Z" fill="#C51D38"/>
<path d="M23.6883 8.76639C23.8195 8.74588 23.9521 8.7493 24.0848 8.7493C25.9558 8.75408 27.8268 8.74383 29.6977 8.75408C30.1113 8.75272 30.4524 9.16219 30.3882 9.56893C30.3554 9.9449 29.9924 10.2347 29.6198 10.2081C27.6846 10.2067 25.7493 10.2122 23.8141 10.2047C23.4135 10.2108 23.0703 9.83211 23.1072 9.43494C23.1182 9.11365 23.3711 8.82108 23.6883 8.76639Z" fill="#C51D38"/>
<path d="M1.97461 16.774C7.02842 16.7651 12.0822 16.774 17.1367 16.7692C17.2324 16.8109 17.3035 16.9148 17.2782 17.0228C17.2536 17.4098 17.3158 17.8062 17.2461 18.187C17.214 18.1979 17.1497 18.2191 17.1176 18.2301C12.0706 18.228 7.02363 18.2314 1.97666 18.228C1.97734 17.7433 1.97803 17.2587 1.97461 16.774Z" fill="#C51D38"/>
<path d="M17.2793 16.7809C17.7558 16.8014 18.2329 16.787 18.7101 16.7891C18.7148 17.2662 18.7039 17.7427 18.7169 18.2198C18.2404 18.2062 17.764 18.2089 17.2875 18.211C17.2909 17.7345 17.2984 17.2573 17.2793 16.7809Z" fill="#C51D38"/>
<path d="M18.7537 16.8123C18.7865 16.802 18.8529 16.7808 18.8857 16.7699C23.932 16.7719 28.9782 16.7678 34.0245 16.7719C34.0266 17.2566 34.017 17.7413 34.0293 18.226C28.9741 18.2355 23.919 18.2253 18.8645 18.2307C18.7695 18.1884 18.6922 18.0851 18.7209 17.9771C18.7537 17.5895 18.6854 17.193 18.7537 16.8123Z" fill="#C51D38"/>
<path d="M17.312 18.254C17.6941 18.1815 18.0919 18.2513 18.4809 18.2219C18.5875 18.1959 18.6894 18.2697 18.7304 18.3647C18.7256 23.4186 18.7332 28.4724 18.727 33.5262C18.2416 33.5214 17.7563 33.52 17.2716 33.5282C17.2675 28.5735 17.2716 23.6188 17.2696 18.6642C17.2764 18.5274 17.2409 18.3798 17.312 18.254Z" fill="#C51D38"/>
<path d="M23.7012 23.3468C25.6734 23.3153 27.6476 23.342 29.6204 23.3338C30.0005 23.3065 30.3703 23.6093 30.3908 23.9955C30.4414 24.3982 30.0989 24.7892 29.6929 24.7885C27.7542 24.796 25.8155 24.7899 23.8769 24.7912C23.5235 24.8138 23.1762 24.5554 23.1195 24.202C23.0326 23.8192 23.3109 23.4028 23.7012 23.3468Z" fill="#C51D38"/>
<path d="M6.62331 23.4897C6.89538 23.2593 7.33493 23.2942 7.57488 23.5553C8.078 24.0536 8.57634 24.5568 9.08015 25.0544C9.14714 25.1173 9.20388 25.1904 9.25242 25.2697C9.2989 25.1898 9.35564 25.1166 9.42263 25.0537C9.93806 24.5465 10.4453 24.0311 10.9607 23.5245C11.2512 23.2313 11.7776 23.2948 12.0128 23.6264C12.2397 23.8985 12.2042 24.3332 11.9465 24.5732C11.4365 25.0872 10.9218 25.5958 10.4125 26.1106C10.3578 26.1673 10.2901 26.2097 10.2245 26.2528C10.2935 26.289 10.3605 26.3286 10.4138 26.3881C10.9006 26.8776 11.388 27.3677 11.8774 27.8551C12.0052 27.9795 12.1262 28.1251 12.1529 28.3083C12.2322 28.6877 11.9437 29.0904 11.565 29.1532C11.334 29.1984 11.0865 29.1163 10.9259 28.9447C10.4152 28.4341 9.90456 27.9221 9.39255 27.4121C9.33718 27.3568 9.29411 27.2918 9.25105 27.2282C9.20251 27.3069 9.14646 27.3807 9.07878 27.4449C8.56404 27.9508 8.05954 28.4676 7.54411 28.9735C7.25701 29.264 6.72995 29.2113 6.4948 28.8819C6.27263 28.6241 6.28425 28.2024 6.52488 27.9604C7.06628 27.4128 7.61111 26.8666 8.15798 26.3238C8.21882 26.2746 8.21951 26.2261 8.16003 26.1769C7.61589 25.632 7.06765 25.0906 6.52761 24.5424C6.23298 24.2526 6.29314 23.7269 6.62331 23.4897Z" fill="#C51D38"/>
<path d="M23.7018 27.7218C25.674 27.6903 27.6482 27.717 29.6211 27.7088C30.0265 27.6774 30.41 28.0274 30.3935 28.4389C30.4052 28.8196 30.0723 29.1635 29.6915 29.1635C27.7528 29.171 25.8135 29.1649 23.8748 29.1662C23.5221 29.1881 23.1755 28.9297 23.1194 28.5763C23.0326 28.1935 23.3115 27.7765 23.7018 27.7218Z" fill="#C51D38"/>
</g>
<defs>
<clipPath id="clip0_335_840">
<rect width="35" height="35" fill="white" transform="translate(0.5)"/>
</clipPath>
</defs>
</svg>
