<svg width="50" height="49" viewBox="0 0 50 49" fill="none" xmlns="http://www.w3.org/2000/svg">
<g clip-path="url(#clip0_335_855)">
<path d="M28.7704 0H28.9685C29.6375 0.0449805 30.2605 0.479473 30.4978 1.11303C32.633 6.54035 34.7528 11.9753 36.8851 17.4046C37.065 17.8285 37.1301 18.3176 36.9655 18.7578C36.8028 19.2516 36.3941 19.6354 35.9137 19.8192C30.4883 21.9543 25.0609 24.0847 19.6346 26.2179C19.1589 26.4131 18.6019 26.4217 18.1407 26.1805C17.7224 25.9786 17.4267 25.5881 17.2659 25.1604C15.1184 19.7158 12.965 14.2722 10.8213 8.8267C10.4442 7.95197 10.9361 6.85713 11.8329 6.54896C17.242 4.42531 22.6559 2.31219 28.0651 0.188535C28.2928 0.102402 28.5283 0.0344531 28.7704 0ZM12.742 8.33287C14.8399 13.675 16.9386 19.0172 19.0403 24.3584C24.3815 22.2605 29.7236 20.1608 35.0648 18.0611C32.9689 12.7151 30.8673 7.3701 28.7675 2.02508C23.4254 4.12672 18.0832 6.22932 12.742 8.33287Z" fill="#C51D38"/>
<path d="M21.1664 8.42189C21.4889 8.03621 22.0076 7.82949 22.5072 7.86394C22.9628 7.9118 23.3102 8.24676 23.625 8.54822C25.475 10.5264 27.3546 12.4778 29.2093 14.4521C29.4782 14.7689 29.7969 15.145 29.7175 15.592C29.6361 16.1777 28.8963 16.5729 28.3843 16.2361C27.7202 15.7633 27.2263 15.0981 26.6445 14.5345C25.3754 15.0417 24.1016 15.5345 22.8307 16.0351C22.8096 16.817 22.8738 17.6037 22.7771 18.3827C22.7465 18.6908 22.5091 18.9521 22.2144 19.0373C21.7454 19.2268 21.1224 18.9818 20.975 18.4822C20.8525 18.0104 20.8573 17.5166 20.8506 17.0333C20.8535 14.6407 20.8506 12.2481 20.8525 9.85553C20.8803 9.36935 20.8439 8.8248 21.1664 8.42189ZM22.6067 9.99334C22.6479 11.4586 22.6948 12.9228 22.7398 14.3871C23.6767 14.0215 24.6136 13.653 25.5496 13.2846C24.5687 12.1869 23.5906 11.0882 22.6067 9.99334Z" fill="#C51D38"/>
<path d="M29.0539 23.3123C29.43 23.1755 29.8406 23.2042 30.2205 23.3123C35.8374 24.8111 41.458 26.2954 47.0739 27.7979C47.9802 28.0315 48.5467 29.0679 48.2587 29.9589C46.7676 35.6351 45.2766 41.3122 43.7769 46.9864C43.5635 47.8956 42.5423 48.4899 41.6456 48.2172C36.0757 46.7443 30.5096 45.2561 24.9406 43.7804C24.5473 43.6808 24.1376 43.5516 23.8496 43.2502C23.3988 42.8176 23.2294 42.1371 23.4026 41.54C24.8487 36.0849 26.3025 30.6327 27.7504 25.1786C27.8337 24.8742 27.8978 24.5632 28.0194 24.2713C28.2089 23.8244 28.5965 23.4703 29.0539 23.3123ZM29.7468 25.2034C28.2692 30.7485 26.7934 36.2945 25.3177 41.8395C30.8656 43.2971 36.4144 44.7537 41.9633 46.2093C43.4371 40.6825 44.91 35.1566 46.3838 29.6307C40.8388 28.152 35.2918 26.6782 29.7468 25.2034Z" fill="#C51D38"/>
<path d="M2.33935 28.2592C2.68196 27.9817 3.13081 27.8869 3.56243 27.8956C9.36874 27.9003 15.176 27.8936 20.9823 27.8994C21.5604 27.8879 22.1394 28.1683 22.4581 28.6554C22.7069 29.0028 22.7691 29.4412 22.7614 29.8584C22.7557 35.6609 22.7662 41.4634 22.7567 47.2659C22.7767 48.1626 22.013 48.9636 21.1192 49H3.32987C2.43218 48.9761 1.65124 48.1789 1.66942 47.2773C1.66081 41.4366 1.66847 35.5939 1.6656 29.7532C1.64263 29.1847 1.87806 28.6028 2.33935 28.2592ZM3.60454 47.0524C9.34386 47.0524 15.0832 47.0544 20.8215 47.0515C20.8206 41.3122 20.8225 35.5729 20.8206 29.8335C15.0822 29.8316 9.34386 29.8335 3.6055 29.8326C3.60263 35.5729 3.6055 41.3122 3.60454 47.0524Z" fill="#C51D38"/>
<path d="M35.6623 30.2001C36.493 30.113 37.3343 30.2279 38.1238 30.4929C39.4177 30.9533 40.5518 32.0194 40.8561 33.388C40.9298 33.8588 40.9528 34.4531 40.5394 34.7805C40.1422 35.1307 39.4273 34.9843 39.2168 34.4933C38.9995 33.9938 38.9459 33.4291 38.6512 32.963C37.9554 31.6232 35.8911 31.3792 34.8498 32.4434C34.1751 33.0922 33.7512 33.967 33.5846 34.8829C33.3578 35.8743 33.2372 37.04 33.8784 37.9099C34.3062 38.4382 34.9905 38.6555 35.6336 38.7866C36.3246 38.9091 37.0596 38.6995 37.5764 38.2238C37.9458 37.9253 38.1363 37.4554 38.5277 37.1826C39.1172 36.8084 39.9661 37.4228 39.8015 38.1013C39.5967 39.0115 38.877 39.7312 38.075 40.1609C37.2539 40.625 36.2605 40.7073 35.3475 40.5131C34.111 40.2805 32.8621 39.6881 32.1539 38.6067C31.3854 37.4515 31.2188 35.9739 31.5002 34.634C31.7462 33.3717 32.3108 32.1237 33.2927 31.2643C33.9512 30.6815 34.7886 30.3035 35.6623 30.2001Z" fill="#C51D38"/>
<path d="M8.55349 33.2281C8.80614 32.9975 9.16024 32.919 9.49425 32.9314C10.6121 32.9372 11.7299 32.9286 12.8467 32.9372C13.5923 32.9496 14.3837 33.0003 15.024 33.4243C15.7772 33.9009 16.2126 34.8101 16.1303 35.6963C16.0738 36.5787 15.4585 37.374 14.6392 37.6917C15.224 37.8257 15.7705 38.1492 16.1274 38.6382C16.8337 39.5694 16.7696 40.9686 16.0518 41.8758C15.646 42.4022 15.0297 42.7209 14.3875 42.852C12.8094 43.1631 11.1949 43.0319 9.59761 43.0635C9.23106 43.0827 8.83103 43.0272 8.55349 42.7659C8.34485 42.5381 8.25202 42.2223 8.25394 41.9189C8.25585 39.3005 8.25394 36.683 8.25489 34.0655C8.25394 33.7641 8.34868 33.454 8.55349 33.2281ZM10.3183 34.4962C10.3029 35.3508 10.2857 36.2054 10.2714 37.0601C11.0332 37.0534 11.7959 37.0783 12.5587 37.0438C13.0286 37.0113 13.5683 36.9232 13.8564 36.505C14.2555 36.0092 14.2603 35.1192 13.6506 34.7862C12.5941 34.3574 11.4284 34.5335 10.3183 34.4962ZM10.3192 38.5741C10.302 39.556 10.2867 40.5379 10.2704 41.5198C10.97 41.5189 11.6696 41.5217 12.3692 41.5198C12.8821 41.5131 13.4209 41.4844 13.8803 41.2318C14.7005 40.804 14.7952 39.444 14.0191 38.9282C13.5779 38.6765 13.063 38.5703 12.5577 38.5741C11.8112 38.5741 11.0647 38.5741 10.3192 38.5741Z" fill="#C51D38"/>
</g>
<defs>
<clipPath id="clip0_335_855">
<rect width="49" height="49" fill="white" transform="translate(0.5)"/>
</clipPath>
</defs>
</svg>
