<svg width="50" height="49" viewBox="0 0 50 49" fill="none" xmlns="http://www.w3.org/2000/svg">
<g clip-path="url(#clip0_335_865)">
<path d="M19.5582 0H31.1986C32.1623 0.0564648 33.0974 0.590488 33.5711 1.44225C34.1415 2.40789 34.0707 3.70658 33.3816 4.59566C33.0476 5.0493 32.5681 5.37086 32.0513 5.58045C32.0456 9.23822 32.0532 12.895 32.0475 16.5528C32.058 16.8093 31.9996 17.0897 32.1355 17.3232C36.135 24.4263 40.1267 31.5342 44.1262 38.6382C44.643 39.5273 45.0459 40.4987 45.154 41.5294C45.3914 43.4483 44.7167 45.4437 43.4036 46.8572C42.1911 48.197 40.4081 48.9617 38.6079 49H12.0943C10.566 48.9598 9.04237 48.422 7.87958 47.418C6.34833 46.1232 5.43819 44.1201 5.50327 42.1122C5.52624 40.9782 5.88034 39.8718 6.43542 38.889C10.476 31.7007 14.5175 24.5134 18.562 17.328C18.6309 17.2122 18.6567 17.0782 18.6529 16.9442C18.6471 13.1563 18.6548 9.36838 18.649 5.58045C18.1284 5.3699 17.647 5.04547 17.313 4.58801C16.6297 3.69988 16.5608 2.40598 17.1293 1.44225C17.6116 0.574219 18.5744 0.0344531 19.5582 0ZM18.7055 2.59355C18.5266 3.11609 18.9074 3.73529 19.4577 3.80229C20.2128 3.88268 20.9775 3.76783 21.7307 3.86449C22.4111 3.98221 22.7116 4.91818 22.2293 5.41297C21.812 5.88861 21.1201 5.70678 20.565 5.74219C20.5641 9.60381 20.566 13.4654 20.5641 17.3271C20.5918 17.7194 20.3487 18.0458 20.1698 18.3721C17.7944 22.5946 15.4191 26.817 13.0447 31.0404C14.2515 31.3964 15.4832 31.694 16.7417 31.7887C19.0634 31.9983 21.434 31.7045 23.6285 30.9131C24.9903 30.4747 26.2249 29.7254 27.5542 29.2048C30.1832 28.1271 33.0658 27.7003 35.8967 27.9147C34.1099 24.7326 32.3193 21.5533 30.5306 18.3731C30.3516 18.0458 30.1085 17.7204 30.1363 17.3271C30.1344 13.4654 30.1363 9.60381 30.1353 5.74219C29.5774 5.70773 28.8864 5.8867 28.4672 5.40914C27.9868 4.91053 28.2931 3.97168 28.9802 3.86258C29.7286 3.76975 30.4875 3.88076 31.2369 3.80324C31.7585 3.74104 32.1394 3.18309 32.0159 2.6749C31.9317 2.20691 31.4647 1.89588 31.0034 1.91693C27.2346 1.91215 23.4658 1.91215 19.697 1.91693C19.2654 1.89971 18.8242 2.1648 18.7055 2.59355ZM26.8958 31.5954C24.6324 32.763 22.1508 33.5296 19.6042 33.7124C17.0652 33.9162 14.4974 33.5545 12.0876 32.741C10.878 34.8953 9.6654 37.0467 8.45475 39.2C8.23655 39.5886 8.00782 39.9733 7.82407 40.3791C7.35225 41.428 7.28622 42.6491 7.64128 43.743C8.06237 45.0752 9.0864 46.2074 10.387 46.729C11.032 46.9988 11.7364 47.0917 12.4331 47.0859C21.079 47.085 29.7248 47.0869 38.3706 47.085C39.1266 47.0879 39.8894 46.9472 40.5727 46.6141C41.9078 45.9825 42.8983 44.6914 43.1892 43.2463C43.4285 42.1228 43.217 40.9265 42.6552 39.9293C40.7986 36.6122 38.9247 33.3047 37.0662 29.9886C33.6161 29.4211 30.0081 30.0106 26.8958 31.5954Z" fill="#C51D38"/>
<path d="M24.9176 16.4763C25.6344 16.3758 26.2009 17.2438 25.8344 17.862C25.5377 18.487 24.5606 18.53 24.2094 17.9357C23.8045 17.3797 24.2295 16.5031 24.9176 16.4763Z" fill="#C51D38"/>
<path d="M20.548 22.2816C21.9443 21.9371 23.4956 22.8271 23.8976 24.2081C24.3886 25.6197 23.5483 27.3079 22.1271 27.7702C20.7786 28.286 19.1258 27.5778 18.5641 26.2504C17.9726 25.0072 18.4521 23.3851 19.6273 22.6663C19.9087 22.4845 20.2226 22.3563 20.548 22.2816ZM21.0906 24.1325C20.3738 24.1603 19.9594 25.1001 20.4217 25.6475C20.8198 26.2227 21.8027 26.0935 22.0448 25.4389C22.3319 24.8206 21.7701 24.0435 21.0906 24.1325Z" fill="#C51D38"/>
<path d="M28.7413 22.2194C29.46 22.1151 30.0304 22.9841 29.6629 23.6052C29.3643 24.233 28.3786 24.2713 28.0312 23.6683C27.6378 23.1123 28.0599 22.25 28.7413 22.2194Z" fill="#C51D38"/>
<path d="M15.3706 41.3591C21.7119 41.3227 28.0551 41.3553 34.3973 41.3428C34.9084 41.2883 35.4577 41.6204 35.5228 42.1553C35.6357 42.7468 35.0892 43.3057 34.4988 43.255C28.1785 43.2588 21.8573 43.2597 15.5361 43.255C15.0787 43.276 14.6117 42.9669 14.5265 42.5037C14.3868 41.9678 14.8193 41.3878 15.3706 41.3591Z" fill="#C51D38"/>
</g>
<defs>
<clipPath id="clip0_335_865">
<rect width="49" height="49" fill="white" transform="translate(0.5)"/>
</clipPath>
</defs>
</svg>
