<svg width="62" height="55" viewBox="0 0 62 55" fill="none" xmlns="http://www.w3.org/2000/svg">
<path d="M57.2984 1.0162C57.3997 0.544405 57.9668 0.259659 58.4112 0.445519C58.7543 0.568234 58.9723 0.92923 58.9556 1.28903C58.9592 14.5113 58.958 27.7347 58.9568 40.9581C58.9783 42.2984 58.4541 43.6364 57.5152 44.5955C56.711 45.4235 55.6173 45.9692 54.4688 46.0978C53.9172 46.161 53.3608 46.1383 52.8068 46.1419C37.913 46.1419 23.0193 46.1407 8.12548 46.1419C6.97458 46.1288 5.84989 46.7567 5.24942 47.7348C4.56556 48.8059 4.56913 50.2642 5.25776 51.3305C5.85942 52.3027 6.97935 52.9222 8.1231 52.9151C11.5126 52.9186 14.901 52.9162 18.2906 52.9162C18.2941 51.2328 18.2858 49.5505 18.2929 47.8671C18.2679 47.4227 18.6361 47.0045 19.084 46.989C19.5701 46.9425 20.0098 47.381 19.9824 47.8647C19.9883 49.8126 19.9859 51.7606 19.9835 53.7085C20.0205 54.2006 19.5844 54.645 19.0912 54.6068C15.3954 54.6068 11.7009 54.614 8.00515 54.6033C6.00597 54.5866 4.11163 53.251 3.39679 51.3877C3.04056 50.5406 3.0203 49.6077 3.04056 48.7034C3.04294 35.7171 3.03937 22.7308 3.04294 9.74564C3.02864 8.32667 3.64103 6.91605 4.69542 5.96411C5.64974 5.08009 6.95194 4.59876 8.25177 4.62497C23.1813 4.62497 38.1108 4.62497 53.0403 4.62497C53.6301 4.6214 54.2341 4.6631 54.8072 4.49034C56.0057 4.15913 56.9708 3.11308 57.1947 1.88831C57.2472 1.59999 57.2448 1.30452 57.2984 1.0162ZM55.0728 6.17261C54.3711 6.3537 53.642 6.31439 52.9247 6.31677C38.031 6.31677 23.1372 6.31558 8.24343 6.31796C6.86497 6.26316 5.51034 7.12573 4.99685 8.40888C4.69066 9.09156 4.73116 9.85405 4.73474 10.5844C4.73355 22.3019 4.73712 34.0205 4.73355 45.7392C5.69144 44.8921 6.96267 44.4179 8.24224 44.443C23.491 44.437 38.7399 44.4489 53.9887 44.437C55.7484 44.4239 57.2877 42.8369 57.2603 41.0784C57.2686 29.0619 57.2603 17.0442 57.265 5.02767C56.6336 5.56976 55.8854 5.98198 55.0728 6.17261Z" fill="#C51D38"/>
<path d="M28.5903 8.40175C28.8441 8.04075 29.3743 7.91566 29.752 8.15632C30.0081 8.33146 30.1761 8.59952 30.3715 8.83423C31.3687 10.0876 32.3731 11.335 33.3726 12.5872C34.0648 11.7317 34.7404 10.862 35.4397 10.0125C35.7566 9.59316 36.4548 9.62175 36.755 10.0471C38.4028 12.2214 40.0278 14.4136 41.6732 16.5915C41.8412 16.8202 42.0365 17.0692 42.0115 17.3718C42.0008 17.8246 41.5767 18.2106 41.1251 18.1772C40.8237 18.1749 40.5747 17.9723 40.4091 17.7376C38.9627 15.804 37.5092 13.8751 36.064 11.9402C35.5279 12.6122 34.9787 13.2746 34.458 13.9585C35.174 14.8199 35.8579 15.7063 36.5644 16.5736C36.7479 16.8024 36.9552 17.0585 36.9254 17.3742C36.9135 17.8353 36.4679 18.2261 36.008 18.1737C35.7447 18.1617 35.5231 17.9938 35.3659 17.7948C33.3464 15.269 31.3282 12.742 29.3052 10.2175C27.636 12.306 25.9633 14.3921 24.2953 16.4819C25.6928 16.4926 27.0915 16.4688 28.4879 16.4926C28.9847 16.4866 29.3886 16.9954 29.2909 17.4767C29.2277 17.902 28.8107 18.2094 28.389 18.1808C26.4398 18.1832 24.4907 18.1903 22.5416 18.1772C21.8613 18.2177 21.4157 17.3349 21.8625 16.8178C24.0964 14.0049 26.3469 11.2063 28.5903 8.40175Z" fill="#C51D38"/>
<path d="M7.78006 10.4617C8.43176 9.38228 9.72086 8.73178 10.9766 8.86402C12.1871 8.96291 13.301 9.77187 13.774 10.8894C14.2494 11.9641 14.1052 13.2794 13.4071 14.2254C12.9543 14.8675 12.2633 15.3083 11.5139 15.5264C11.5127 18.4358 11.5151 21.344 11.5127 24.2522C12.535 24.6323 13.2772 25.6736 13.1998 26.7768C13.17 27.8014 12.4432 28.6938 11.5068 29.0607C11.5223 31.6949 11.508 34.3291 11.5151 36.9633C12.0715 37.1921 12.5767 37.5733 12.8697 38.1071C13.3427 38.9149 13.313 39.9847 12.7911 40.7627C12.3062 41.5193 11.3948 41.9744 10.4977 41.9065C9.56479 41.8541 8.69387 41.2393 8.33287 40.3779C7.95162 39.5189 8.10531 38.4562 8.71531 37.7413C9.00363 37.3791 9.41229 37.1468 9.82332 36.9514C9.81141 34.3172 9.82451 31.6818 9.81736 29.0464C8.88092 28.6962 8.16608 27.7967 8.13272 26.784C8.05289 25.6843 8.78918 24.6311 9.81736 24.2629C9.8269 21.3559 9.80902 18.4477 9.8257 15.5395C9.08107 15.3024 8.38291 14.877 7.92779 14.2301C7.1224 13.1555 7.06522 11.5959 7.78006 10.4617ZM10.083 10.6607C9.25621 10.943 8.76774 11.9236 9.05248 12.754C9.30268 13.6225 10.3178 14.1562 11.1756 13.8632C12.0298 13.6142 12.5624 12.6253 12.2895 11.7746C12.0489 10.862 10.9635 10.3068 10.083 10.6607ZM10.307 25.8868C9.75899 26.1168 9.64938 26.9424 10.1247 27.3034C10.5906 27.7276 11.4341 27.413 11.502 26.784C11.6343 26.1442 10.8825 25.583 10.307 25.8868ZM10.2844 38.6051C9.71609 38.8601 9.66129 39.7429 10.1962 40.0658C10.7014 40.4375 11.4949 40.0384 11.5104 39.4153C11.5818 38.7898 10.8324 38.2929 10.2844 38.6051Z" fill="#C51D38"/>
<path d="M48.7707 9.78374C50.0681 9.55857 51.449 9.85999 52.5284 10.6165C53.7329 11.4434 54.5478 12.8111 54.6896 14.267C54.8433 15.6335 54.3965 17.0489 53.5017 18.0902C52.6475 19.0993 51.387 19.7475 50.0693 19.8535C48.5181 19.9965 46.9228 19.3698 45.8815 18.2129C44.7699 17.012 44.3089 15.2523 44.6841 13.6594C45.1071 11.7007 46.7917 10.1018 48.7707 9.78374ZM48.8016 11.5077C47.8164 11.7519 46.9657 12.468 46.5511 13.3937C45.9673 14.6483 46.258 16.2424 47.2576 17.2014C48.2643 18.2249 49.9394 18.4762 51.2023 17.7936C52.6999 17.0501 53.4374 15.1165 52.7976 13.5676C52.2281 12.0045 50.4077 11.0633 48.8016 11.5077Z" fill="#C51D38"/>
<path d="M15.4244 11.4684C15.6424 11.385 15.8831 11.4041 16.113 11.3969C17.3831 11.4064 18.6531 11.3921 19.9232 11.4029C20.3962 11.3659 20.8441 11.7698 20.8298 12.2476C20.8465 12.7265 20.3962 13.1328 19.9232 13.0959C18.5733 13.1042 17.2234 13.0982 15.8736 13.0994C15.5293 13.1209 15.1647 12.9684 15.005 12.6491C14.762 12.2297 14.9753 11.6423 15.4244 11.4684Z" fill="#C51D38"/>
<path d="M49.2562 12.2822C50.1056 12.1416 51.0087 12.4787 51.5639 13.1364C52.1084 13.7595 52.3109 14.659 52.0857 15.4561C51.8832 16.2245 51.2958 16.8762 50.5524 17.1574C49.697 17.4981 48.6616 17.3182 47.973 16.7058C47.2212 16.0661 46.9055 14.9664 47.2189 14.0288C47.4917 13.1197 48.3173 12.4168 49.2562 12.2822ZM49.392 13.9799C48.7891 14.136 48.5818 14.9938 49.0536 15.4048C49.4873 15.8588 50.3451 15.6014 50.4607 14.9843C50.6358 14.3802 49.9817 13.7714 49.392 13.9799Z" fill="#C51D38"/>
<path d="M13.8959 15.6598C14.5988 15.6395 15.316 15.599 16.0154 15.6836C16.7683 15.8862 16.7719 17.0776 16.0213 17.2861C15.4185 17.3885 14.7978 17.3111 14.1889 17.3337C13.7958 17.3695 13.3764 17.1514 13.2561 16.7606C13.0786 16.2984 13.4038 15.7289 13.8959 15.6598Z" fill="#C51D38"/>
<path d="M30.6581 16.5581C31.0728 16.433 31.5207 16.4782 31.9472 16.4997C32.5704 16.5342 32.9171 17.3515 32.5287 17.8329C32.1212 18.3535 31.3694 18.1724 30.7987 18.1522C30.0315 18.0152 29.9326 16.8297 30.6581 16.5581Z" fill="#C51D38"/>
<path d="M13.7489 18.2392C14.2469 18.1224 14.7675 18.2082 15.2751 18.1808C15.6921 18.1665 16.2115 18.1522 16.4546 18.562C16.8346 19.0803 16.4022 19.8988 15.7588 19.869C15.0976 19.8607 14.4244 19.9298 13.7703 19.8237C13.0495 19.6093 13.0329 18.4715 13.7489 18.2392Z" fill="#C51D38"/>
<path d="M13.7693 20.7721C14.4222 20.6708 15.093 20.7411 15.7518 20.7292C16.1914 20.7113 16.5858 21.0985 16.5941 21.5346C16.6251 21.9992 16.2117 22.4293 15.7447 22.4115C15.081 22.3972 14.4008 22.4818 13.7455 22.3555C13.033 22.1208 13.0509 20.9865 13.7693 20.7721Z" fill="#C51D38"/>
<path d="M49.3882 20.7602C49.8505 20.6029 50.4057 20.9341 50.4653 21.4226C50.5105 21.9361 50.4915 22.4544 50.4438 22.9667C50.4021 23.3586 50.3128 23.8316 49.9101 24.0127C49.3727 24.3142 48.6174 23.8328 48.6984 23.2133C48.7794 22.6986 48.8032 22.178 48.7913 21.6573C48.7592 21.2653 49.0046 20.8674 49.3882 20.7602Z" fill="#C51D38"/>
<path d="M37.8328 23.3932C39.0373 22.9655 40.4789 23.6195 40.9566 24.8026C41.3843 25.7593 41.1246 26.9603 40.3514 27.6644C39.5996 28.3828 38.3915 28.5508 37.4718 28.0659C36.5723 27.6179 35.998 26.6028 36.0933 25.5997C36.1624 24.6025 36.8808 23.6958 37.8328 23.3932ZM38.295 25.0242C37.7089 25.2411 37.5969 26.1191 38.108 26.4765C38.5714 26.8661 39.3649 26.5611 39.4531 25.9642C39.6091 25.3352 38.88 24.7407 38.295 25.0242Z" fill="#C51D38"/>
<path d="M47.8435 24.4631C48.3904 24.2665 49.0063 24.7907 48.9182 25.3626C48.8908 25.751 48.5572 25.9988 48.2343 26.1537C47.6553 26.4456 47.0096 26.6529 46.3555 26.629C45.7824 26.5623 45.4464 25.8368 45.7693 25.3566C45.9552 25.004 46.3733 24.9575 46.7248 24.9015C47.1323 24.855 47.4706 24.6108 47.8435 24.4631Z" fill="#C51D38"/>
<path d="M29.3623 25.0361C29.7078 24.9766 30.1105 24.8968 30.4108 25.1327C30.8182 25.415 30.8706 26.0631 30.512 26.4063C30.2023 26.7256 29.7162 26.641 29.3302 26.7935C28.9048 26.9305 28.5021 27.3332 28.028 27.139C27.4728 26.9638 27.2797 26.1704 27.7039 25.7653C28.1745 25.3757 28.7714 25.1624 29.3623 25.0361Z" fill="#C51D38"/>
<path d="M32.0981 25.0361C32.5508 24.8884 33.0393 24.9837 33.5075 24.9563C33.9388 24.9694 34.4761 24.8705 34.7859 25.2518C35.1814 25.6735 34.9694 26.4444 34.4154 26.6064C33.9603 26.697 33.4896 26.6314 33.0286 26.6517C32.6342 26.6386 32.1612 26.7279 31.8586 26.4074C31.4369 26.025 31.5727 25.2542 32.0981 25.0361Z" fill="#C51D38"/>
<path d="M42.4794 25.0493C42.9584 24.8837 43.4862 24.9706 43.9854 24.9671C44.5418 24.9575 44.954 25.5925 44.7419 26.1013C44.6037 26.5087 44.1557 26.697 43.7507 26.6529C43.2479 26.6136 42.626 26.7947 42.2376 26.3789C41.8563 25.9941 41.9886 25.2756 42.4794 25.0493Z" fill="#C51D38"/>
<path d="M14.4873 25.9142C14.7613 25.7664 15.0854 25.8165 15.3832 25.8058C16.1028 25.8224 16.8236 25.7855 17.5432 25.8201C18.0091 25.8487 18.3665 26.3371 18.2772 26.7911C18.2188 27.1938 17.8363 27.5119 17.4289 27.4952C16.6294 27.5083 15.83 27.4976 15.0306 27.4999C14.6922 27.5238 14.3324 27.3796 14.1668 27.0722C13.9309 26.6826 14.0858 26.1274 14.4873 25.9142Z" fill="#C51D38"/>
<path d="M26.621 27.5465C27.1261 27.3701 27.7254 27.7943 27.7051 28.3316C27.6622 28.7676 27.586 29.2025 27.611 29.6433C27.6265 30.0162 27.6229 30.4618 27.2858 30.7049C26.8342 31.0968 26.0395 30.8157 25.9419 30.2259C25.8882 29.5599 25.8894 28.8784 26.0312 28.222C26.086 27.9098 26.3136 27.6346 26.621 27.5465Z" fill="#C51D38"/>
<path d="M13.7737 29.2442C14.2622 29.1691 14.796 29.1286 15.2725 29.2811C15.9516 29.5694 15.8635 30.6762 15.145 30.8502C14.653 30.9026 14.1169 30.9658 13.6474 30.7823C13.016 30.4773 13.0994 29.4408 13.7737 29.2442Z" fill="#C51D38"/>
<path d="M13.6445 31.8426C14.1163 31.6592 14.6536 31.7211 15.1468 31.7735C15.8688 31.9487 15.9522 33.0626 15.266 33.3462C14.799 33.4939 14.2795 33.4534 13.7994 33.3879C13.1072 33.2104 13.0071 32.1548 13.6445 31.8426Z" fill="#C51D38"/>
<path d="M26.3821 31.8272C26.8837 31.5484 27.5819 31.9332 27.5998 32.5098C27.62 33.1032 27.6141 33.6977 27.6033 34.2922C27.6105 34.7163 27.2495 35.0952 26.8277 35.1202C26.3607 35.1703 25.9092 34.7652 25.9211 34.2934C25.9068 33.7358 25.9127 33.177 25.9175 32.6206C25.9056 32.2942 26.0867 31.9689 26.3821 31.8272Z" fill="#C51D38"/>
<path d="M40.4946 32.9209C40.8246 32.486 41.5478 32.5063 41.8635 32.9495C42.993 34.347 44.1069 35.7576 45.2364 37.1563C45.9191 36.3045 46.5946 35.4455 47.2844 34.5996C47.612 34.1588 48.3424 34.1862 48.6402 34.6472C50.2641 36.7953 51.8713 38.9565 53.494 41.107C53.6668 41.3453 53.8848 41.5943 53.8717 41.91C53.8812 42.3973 53.4035 42.8191 52.9198 42.7405C52.6529 42.7178 52.4384 42.5367 52.2871 42.3282C50.8324 40.3886 49.3801 38.4478 47.923 36.5094C47.3857 37.1742 46.8579 37.8462 46.3182 38.5086C47.0711 39.4677 47.8467 40.4089 48.5973 41.3691C48.8344 41.6563 48.8523 42.0971 48.6259 42.3973C48.3769 42.7595 47.8277 42.8572 47.4715 42.6011C47.2296 42.4104 47.0604 42.1495 46.8674 41.916C44.9695 39.538 43.0692 37.1623 41.1653 34.7878C39.495 36.8787 37.8199 38.9661 36.1519 41.0582C37.5316 41.0606 38.9112 41.0522 40.2909 41.0606C40.7138 41.0344 41.1093 41.3727 41.157 41.7921C41.238 42.2865 40.7984 42.7726 40.2992 42.7452C38.3882 42.7571 36.4772 42.7464 34.5673 42.7512C34.1944 42.7786 33.781 42.6261 33.6273 42.2627C33.4546 41.9303 33.5713 41.5312 33.812 41.2667C36.0411 38.4859 38.2607 35.6969 40.4946 32.9209Z" fill="#C51D38"/>
<path d="M13.7548 34.3339C14.2361 34.2421 14.7568 34.229 15.2345 34.347C15.9089 34.5972 15.9029 35.6647 15.225 35.9065C14.7258 36.009 14.1694 36.0352 13.6786 35.8815C13.0293 35.5968 13.0793 34.5519 13.7548 34.3339Z" fill="#C51D38"/>
<path d="M26.1752 36.0447C26.9925 35.8422 27.9004 36.0828 28.5056 36.6666C29.0572 37.1837 29.361 37.9557 29.2919 38.7111C29.23 39.6285 28.6224 40.4803 27.7753 40.8401C26.9282 41.2178 25.8809 41.076 25.1661 40.4863C24.3988 39.8775 24.0426 38.8016 24.3119 37.858C24.537 36.9716 25.2852 36.2496 26.1752 36.0447ZM26.5195 37.702C25.9191 37.8557 25.7058 38.7087 26.174 39.1221C26.6125 39.588 27.4893 39.3175 27.5894 38.6861C27.7479 38.088 27.1009 37.4982 26.5195 37.702Z" fill="#C51D38"/>
<path d="M14.7275 38.5371C15.6246 38.4895 16.5253 38.5252 17.4248 38.5193C17.9038 38.4919 18.3351 38.9375 18.2874 39.4176C18.2683 39.8572 17.8633 40.2218 17.426 40.2051C16.5873 40.2111 15.7497 40.2123 14.911 40.2039C14.519 40.2158 14.1461 39.9216 14.0758 39.5344C13.9685 39.0959 14.2831 38.611 14.7275 38.5371Z" fill="#C51D38"/>
<path d="M42.4831 41.1439C42.9252 40.9926 43.4136 41.0546 43.8723 41.0796C44.4716 41.1582 44.7647 41.9613 44.3763 42.4188C43.97 42.9203 43.2349 42.7321 42.6762 42.7238C41.9184 42.6058 41.7814 41.4454 42.4831 41.1439Z" fill="#C51D38"/>
</svg>
