<svg width="39" height="50" viewBox="0 0 39 50" fill="none" xmlns="http://www.w3.org/2000/svg">
<path d="M5.27334 -0.10004V-0.1H35.9472H35.9569L35.9568 -0.0995328C37.2145 0.0224768 38.2668 1.16612 38.2249 2.44314C38.2265 9.63305 38.2264 16.8233 38.2262 24.0135C38.2261 30.0059 38.226 35.9982 38.2269 41.9902V41.9909C38.2262 42.0773 38.2271 42.1654 38.2279 42.2547C38.2323 42.7218 38.2369 43.2221 38.0385 43.679M5.27334 -0.10004L37.9462 43.6406M5.27334 -0.10004L5.27051 -0.09996C4.14199 -0.0680303 3.03145 0.386644 2.21532 1.16958C1.28275 2.04151 0.752221 3.31235 0.773924 4.58679C0.772948 10.4952 0.773192 16.4034 0.773436 22.3115C0.773681 28.2197 0.773925 34.1278 0.772948 40.0362C0.761253 40.7052 0.776169 41.4045 1.00258 42.0616M5.27334 -0.10004L1.09756 42.0303M38.0385 43.679C38.0383 43.6795 38.0381 43.68 38.0379 43.6805L37.9462 43.6406M38.0385 43.679C38.0387 43.6785 38.0389 43.678 38.0391 43.6775L37.9462 43.6406M38.0385 43.679C37.6818 44.5752 36.7749 45.2173 35.8067 45.2377L35.8062 45.2377C35.246 45.2466 33.5096 45.2451 31.8708 45.2436C30.4814 45.2423 29.1622 45.2411 28.6895 45.2465L28.686 45.2465L28.686 45.2465C28.6743 45.2462 28.6625 45.246 28.6504 45.2458M37.9462 43.6406C37.6044 44.501 36.7323 45.1182 35.8046 45.1377C35.2428 45.1467 33.5118 45.1451 31.8759 45.1436C30.8379 45.1426 29.8381 45.1417 29.1999 45.1436C29.0376 45.2257 28.8519 45.2414 28.6895 45.2451C28.6883 45.2451 28.6872 45.2452 28.686 45.2452C28.674 45.2455 28.6621 45.2457 28.6504 45.2458M28.6504 45.2458C28.6285 45.2456 28.6059 45.2455 28.5827 45.2454C28.5823 45.2454 28.582 45.2454 28.5816 45.2454C28.5763 45.2454 28.5709 45.2454 28.5655 45.2454C28.4605 45.2452 28.3452 45.2449 28.237 45.2318C28.1338 45.2194 28.0284 45.1947 27.9298 45.1445C26.5934 45.1411 25.2571 45.1421 23.9208 45.1432C22.012 45.1446 20.1033 45.1461 18.1942 45.1348M28.6504 45.2458C28.6295 45.2461 28.6092 45.2463 28.5894 45.2464L28.5827 45.2465L28.5816 45.2465C27.0291 45.2408 25.4755 45.242 23.9218 45.2432C22.045 45.2446 20.1678 45.246 18.2917 45.2353M18.2917 45.2353C18.2925 45.2027 18.2933 45.1701 18.2942 45.1375L18.1942 45.1348M18.2917 45.2353C18.259 45.2351 18.2263 45.235 18.1936 45.2348L18.1942 45.1348M18.2917 45.2353C18.2784 45.7938 18.2802 46.3527 18.2826 46.9131L18.2829 46.9759C18.2854 47.5478 18.2879 48.1213 18.2747 48.6947L18.2747 48.6958C18.2503 49.403 17.6695 49.9615 17.0134 50.0979L17.0033 50.1H16.9931H16.6112H16.5984L16.586 50.0968C16.2543 50.0102 15.9452 49.8726 15.6461 49.7263C15.555 49.6817 15.4653 49.6366 15.3762 49.5917C15.1831 49.4946 14.9928 49.3988 14.7973 49.3133M18.1942 45.1348C18.1776 45.7483 18.1802 46.362 18.1829 46.9758C18.1854 47.5481 18.1879 48.1203 18.1747 48.6924C18.1522 49.3447 17.6132 49.8711 16.9931 50H16.6112C16.1933 49.8909 15.8086 49.6974 15.4242 49.5039C15.2168 49.3995 15.0093 49.2952 14.7968 49.2041M14.7973 49.3133C14.8105 49.3074 14.8238 49.3015 14.8371 49.2956L14.7968 49.2041M14.7973 49.3133C14.784 49.3075 14.7707 49.3017 14.7574 49.296L14.7968 49.2041M14.7973 49.3133C14.6095 49.3973 14.426 49.4886 14.2403 49.5809C14.1462 49.6277 14.0516 49.6748 13.9556 49.7213C13.6595 49.8649 13.355 50.0008 13.0321 50.0959L13.0182 50.1H13.0038H12.6317H12.6237L12.6157 50.0987C11.9172 49.9856 11.3122 49.3733 11.3149 48.6371M14.7968 49.2041C14.5929 49.2939 14.393 49.3933 14.1932 49.4927C13.8061 49.6852 13.4192 49.8776 13.0038 50H12.6317C11.9745 49.8936 11.412 49.3174 11.4149 48.6367M11.3149 48.6371C11.3149 48.6373 11.3149 48.6376 11.3149 48.6379L11.4149 48.6367M11.3149 48.6371C11.3149 48.6368 11.3149 48.6365 11.3149 48.6363L11.4149 48.6367M11.3149 48.6371C11.3072 47.975 11.3086 47.3111 11.3099 46.6483C11.3109 46.1791 11.3119 45.7105 11.3096 45.2433M11.4149 48.6367C11.4072 47.9742 11.4085 47.312 11.4099 46.65C11.411 46.1478 11.412 45.6457 11.4091 45.1436M11.4091 45.1436L11.4088 45.2436C11.3758 45.2435 11.3427 45.2434 11.3096 45.2433M11.4091 45.1436C10.588 45.1416 9.76689 45.1425 8.9458 45.1433C7.71416 45.1446 6.48252 45.1459 5.25088 45.1377C3.39346 45.1104 1.6542 43.7988 1.09756 42.0303M11.4091 45.1436L11.3091 45.1441C11.3093 45.1772 11.3095 45.2103 11.3096 45.2433M11.3096 45.2433C10.5223 45.2417 9.73458 45.2425 8.94664 45.2433C7.71456 45.2446 6.48203 45.2459 5.25021 45.2377L5.24941 45.2377C3.3488 45.2097 1.57245 43.8701 1.00258 42.0616M1.00258 42.0616C1.00273 42.062 1.00288 42.0625 1.00303 42.0629L1.09756 42.0303M1.00258 42.0616C1.00244 42.0612 1.00231 42.0607 1.00217 42.0603L1.09756 42.0303M28.4893 43.5768C28.4591 43.5766 28.4278 43.5768 28.3957 43.5777C26.3635 43.5778 24.3311 43.578 22.2986 43.5782C18.0737 43.5786 13.8485 43.579 9.62333 43.5778C9.62236 29.5731 9.62236 15.5695 9.62333 1.5658C16.1145 1.56436 22.6056 1.56454 29.0963 1.56472C31.2709 1.56478 33.4455 1.56484 35.62 1.56484V1.5653L35.6296 1.56439C36.1209 1.51717 36.5868 1.94373 36.5583 2.43661L36.5581 2.4366L36.5581 2.44243C36.564 15.8545 36.562 29.2676 36.5591 42.6797H36.5589L36.5593 42.6862C36.5898 43.1518 36.1861 43.5885 35.7198 43.5739L35.7198 43.5738L35.7154 43.5738C35.0119 43.5828 32.5983 43.58 30.711 43.5779L28.4893 43.5768ZM2.6005 3.55235L2.60054 3.55237L2.60155 3.54937C2.9742 2.43801 4.06582 1.60966 5.23872 1.57165C5.8578 1.56073 6.47634 1.56295 7.09599 1.56517C7.3832 1.5662 7.67064 1.56722 7.95848 1.56695C7.95738 9.57359 7.95754 17.5803 7.9577 25.5869C7.95782 31.5838 7.95794 37.5806 7.95753 43.5775C7.64722 43.5768 7.33748 43.5776 7.02801 43.5784C6.43501 43.58 5.843 43.5815 5.24997 43.5729C3.99597 43.5386 2.84009 42.5967 2.53737 41.3811L2.53741 41.3811L2.53665 41.3784C2.43212 41.0041 2.43499 40.6171 2.43797 40.2163C2.43864 40.1259 2.43932 40.0348 2.43877 39.9431V39.8757V39.8079V39.7402V39.6725V39.6048V39.5371V39.4694V39.4017V39.334V39.2663V39.1986V39.1309V39.0631V38.9954V38.9277V38.86V38.7923V38.7246V38.6569V38.5892V38.5215V38.4538V38.3861V38.3184V38.2506V38.1829V38.1152V38.0475V37.9798V37.9121V37.8444V37.7767V37.709V37.6413V37.5736V37.5059V37.4381V37.3704V37.3027V37.235V37.1673V37.0996V37.0319V36.9642V36.8965V36.8288V36.7611V36.6934V36.6256V36.5579V36.4902V36.4225V36.3548V36.2871V36.2194V36.1517V36.084V36.0163V35.9486V35.8809V35.8132V35.7454V35.6777V35.61V35.5423V35.4746V35.4069V35.3392V35.2715V35.2038V35.1361V35.0684V35.0007V34.9329V34.8652V34.7975V34.7298V34.6621V34.5944V34.5267V34.459V34.3913V34.3236V34.2559V34.1882V34.1205V34.0528V33.985V33.9173V33.8496V33.7819V33.7142V33.6465V33.5788V33.5111V33.4434V33.3757V33.308V33.2403V33.1726V33.1049V33.0371V32.9694V32.9017V32.834V32.7663V32.6986V32.6309V32.5632V32.4955V32.4278V32.3601V32.2924V32.2247V32.157V32.0892V32.0215V31.9538V31.8861V31.8184V31.7507V31.683V31.6153V31.5476V31.4799V31.4122V31.3445V31.2768V31.2091V31.1413V31.0736V31.0059V30.9382V30.8705V30.8028V30.7351V30.6674V30.5997V30.532V30.4643V30.3966V30.3289V30.2612V30.1935V30.1257V30.058V29.9903V29.9226V29.8549V29.7872V29.7195V29.6518V29.5841V29.5164V29.4487V29.381V29.3133V29.2456V29.1779V29.1102V29.0424V28.9747V28.907V28.8393V28.7716V28.7039V28.6362V28.5685V28.5008V28.4331V28.3654V28.2977V28.23V28.1623V28.0946V28.0268V27.9591V27.8914V27.8237V27.756V27.6883V27.6206V27.5529V27.4852V27.4175V27.3498V27.2821V27.2144V27.1467V27.079V27.0113V26.9435V26.8758V26.8081V26.7404V26.6727V26.605V26.5373V26.4696V26.4019V26.3342V26.2665V26.1988V26.1311V26.0634V25.9957V25.928V25.8602V25.7925V25.7248V25.6571V25.5894V25.5217V25.454V25.3863V25.3186V25.2509V25.1832V25.1155V25.0478V24.9801V24.9124V24.8447V24.7769V24.7092V24.6415V24.5738V24.5061V24.4384V24.3707V24.303V24.2353V24.1676V24.0999V24.0322V23.9645V23.8968V23.8291V23.7614V23.6936V23.6259V23.5582V23.4905V23.4228V23.3551V23.2874V23.2197V23.152V23.0843V23.0166V22.9489V22.8812V22.8135V22.7458V22.6781V22.6104V22.5426V22.4749V22.4072V22.3395V22.2718V22.2041V22.1364V22.0687V22.001V21.9333V21.8656V21.7979V21.7302V21.6625V21.5948V21.5271V21.4593V21.3916V21.3239V21.2562V21.1885V21.1208V21.0531V20.9854V20.9177V20.85V20.7823V20.7146V20.6469V20.5792V20.5115V20.4438V20.376V20.3083V20.2406V20.1729V20.1052V20.0375V19.9698V19.9021V19.8344V19.7667V19.699V19.6313V19.5636V19.4959V19.4282V19.3605V19.2928V19.225V19.1573V19.0896V19.0219V18.9542V18.8865V18.8188V18.7511V18.6834V18.6157V18.548V18.4803V18.4126V18.3449V18.2772V18.2094V18.1417V18.074V18.0063V17.9386V17.8709V17.8032V17.7355V17.6678V17.6001V17.5324V17.4647V17.397V17.3293V17.2616V17.1939V17.1261V17.0584V16.9907V16.923V16.8553V16.7876V16.7199V16.6522V16.5845V16.5168V16.4491V16.3814V16.3137V16.246V16.1783V16.1106V16.0428V15.9751V15.9074V15.8397V15.772V15.7043V15.6366V15.5689V15.5012V15.4335V15.3658V15.2981V15.2304V15.1627V15.095V15.0272V14.9595V14.8918V14.8241V14.7564V14.6887V14.621V14.5533V14.4856V14.4179V14.3502V14.2825V14.2148V14.1471V14.0794V14.0116V13.9439V13.8762V13.8085V13.7408V13.6731V13.6054V13.5377V13.47V13.4023V13.3346V13.2669V13.1992V13.1315V13.0637V12.996V12.9283V12.8606V12.7929V12.7252V12.6575V12.5898V12.5221V12.4544V12.3867V12.319V12.2513V12.1836V12.1159V12.0481V11.9804V11.9127V11.845V11.7773V11.7096V11.6419V11.5742V11.5065V11.4388V11.3711V11.3034V11.2357V11.1679V11.1002V11.0325V10.9648V10.8971V10.8294V10.7617V10.694V10.6263V10.5586V10.4909V10.4232V10.3555V10.2878V10.22V10.1523V10.0846V10.0169V9.94921V9.88151V9.8138V9.74609V9.67838V9.61068V9.54297V9.47526V9.40755V9.33984V9.27214V9.20443V9.13672V9.06901V9.00131V8.9336V8.86589V8.79818V8.73047V8.66277V8.59506V8.52735V8.45964V8.39193V8.32423V8.25652V8.18881V8.1211V8.05339V7.98569V7.91798V7.85027V7.78256V7.71485V7.64714V7.57944V7.51173V7.44402V7.37631V7.3086V7.24089V7.17319V7.10548V7.03777V6.97006V6.90235V6.83464V6.76694V6.69923V6.63152V6.56381V6.4961V6.42839V6.36068V6.29298V6.22527V6.15756V6.08985V6.02214V5.95443V5.88672V5.81902V5.75131V5.6836V5.61589V5.54818V5.48047V5.41276V5.34505V5.2775C2.43907 5.1862 2.43837 5.0953 2.43767 5.00489C2.43379 4.50091 2.43003 4.01198 2.6005 3.55235ZM15.2418 47.7016L15.2419 47.7013L15.2348 47.6992C14.7721 47.5599 14.3516 47.6789 13.9623 47.8564C13.8081 47.9268 13.6553 48.008 13.5063 48.0872C13.468 48.1076 13.43 48.1278 13.3922 48.1477C13.2511 48.222 13.1129 48.292 12.975 48.3499C12.9753 47.9192 12.9752 47.4889 12.9751 47.0586C12.9749 46.4533 12.9748 45.8482 12.9757 45.2425C13.3935 45.2423 13.8114 45.2426 14.2293 45.243C15.0242 45.2437 15.8192 45.2444 16.6136 45.2411C16.6193 45.9678 16.6184 46.6945 16.6174 47.422C16.6169 47.7277 16.6165 48.0335 16.6166 48.3394C16.4972 48.2824 16.3774 48.2234 16.2569 48.164C15.925 48.0005 15.5882 47.8347 15.2418 47.7016Z" fill="#C51D38" stroke="#C51D38" stroke-width="0.2"/>
<path d="M15.22 4.82645L15.2198 4.82647C14.6373 4.89458 14.0852 5.17067 13.6779 5.58988C12.7036 6.55978 12.6768 8.28986 13.6035 9.2985C14.1018 9.85945 14.8482 10.1764 15.5955 10.1645C16.0701 10.1645 16.5447 10.1648 17.0193 10.1651C18.2053 10.1659 19.3915 10.1667 20.577 10.1625C21.0191 10.1903 21.433 9.82954 21.4524 9.38355C21.4953 8.89915 21.0573 8.46648 20.5783 8.50156C19.2212 8.49913 17.8648 8.50008 16.5086 8.50103C16.2372 8.50122 15.9659 8.50141 15.6945 8.50157C15.4488 8.50059 15.2149 8.47525 15.0341 8.34794L15.0342 8.34779L15.0292 8.34465C14.738 8.16455 14.5881 7.8223 14.5918 7.47141C14.5956 7.12055 14.7527 6.78243 15.0484 6.60982L15.0485 6.60988L15.0518 6.60776C15.1804 6.52572 15.3263 6.48989 15.4855 6.4752C15.6011 6.46453 15.7168 6.46527 15.8361 6.46603C15.8843 6.46634 15.9331 6.46666 15.9828 6.46622C18.4134 6.46829 20.8444 6.46789 23.2754 6.4675C25.4363 6.46715 27.5972 6.46679 29.7577 6.46817V6.46823L29.7611 6.46812C30.0633 6.45814 30.3678 6.56388 30.5585 6.78838L30.5585 6.78841L30.5606 6.79073C30.7993 7.05457 30.8443 7.45436 30.7585 7.81071C30.6556 8.20729 30.2626 8.50276 29.8513 8.49569L29.8486 8.49572C29.0393 8.50364 28.2296 8.50199 27.4193 8.50034L27.3064 8.50011C26.4585 8.4984 25.6099 8.49717 24.7615 8.50743L24.7602 8.50746C24.5093 8.51373 24.2914 8.65101 24.1529 8.83978C24.0151 9.02762 23.9492 9.27554 24.0119 9.51484C24.0919 9.90896 24.4798 10.1861 24.8731 10.1625C26.5324 10.1674 28.1916 10.1664 29.8498 10.1635C30.4942 10.1634 31.1333 9.91818 31.609 9.48149C32.6408 8.56782 32.7496 6.84781 31.8908 5.78741C31.3871 5.1417 30.5699 4.7795 29.7583 4.80333C27.0791 4.80221 24.4002 4.80237 21.7213 4.80253C19.7117 4.80265 17.7021 4.80277 15.6924 4.80234L15.6911 4.80236C15.5365 4.80432 15.3778 4.80824 15.22 4.82645ZM13.749 5.66017C14.1406 5.25684 14.6719 4.99122 15.2314 4.92579L13.749 5.66017Z" fill="#C51D38" stroke="#C51D38" stroke-width="0.2"/>
<path d="M23.6212 12.0824L23.6211 12.0824C23.1123 11.5905 22.2375 11.6114 21.7428 12.1098C21.263 12.583 20.7864 13.0608 20.3103 13.5381C19.9585 13.8909 19.6069 14.2434 19.2545 14.5935C18.7811 14.5946 18.3071 14.5941 17.833 14.5937C17.1502 14.593 16.4671 14.5923 15.7847 14.5963C15.063 14.5692 14.3948 15.1878 14.3901 15.9177C14.3805 16.7043 14.3823 17.4919 14.3841 18.2788C14.3849 18.6728 14.3858 19.0665 14.3853 19.4599C14.0118 19.8388 13.633 20.2165 13.2538 20.5945C12.7957 21.0512 12.3372 21.5084 11.8867 21.9689C11.3943 22.4648 11.3914 23.3336 11.8784 23.8344L11.8785 23.8345C12.3876 24.3561 12.9051 24.872 13.4221 25.3873C13.7434 25.7076 14.0646 26.0277 14.3834 26.3489C14.3846 26.8791 14.3843 27.4105 14.384 27.9422C14.3836 28.555 14.3832 29.168 14.3852 29.7794C14.3429 30.5064 14.9475 31.1932 15.6838 31.2123L15.6847 31.2123C16.3553 31.2237 17.0296 31.2218 17.7026 31.2199C18.2229 31.2185 18.7424 31.217 19.2589 31.2217C19.4929 31.4558 19.7267 31.6902 19.9606 31.9246C20.5517 32.5172 21.1431 33.1099 21.7387 33.6986C22.2342 34.2009 23.1149 34.2243 23.6251 33.7272C24.0489 33.3173 24.4643 32.8993 24.8789 32.4822L24.9059 32.455C25.3201 32.0383 25.7336 31.6226 26.1552 31.2155C27.3196 31.223 28.4849 31.222 29.649 31.2162C30.3615 31.2232 30.9966 30.6075 31.0042 29.893C31.0134 29.2162 31.0117 28.5374 31.01 27.8596C31.0088 27.3944 31.0077 26.9296 31.01 26.4664L31.0101 26.4561L31.0081 26.446C31.0001 26.4069 31.0095 26.3732 31.0351 26.3345C31.0591 26.2982 31.0914 26.2658 31.1303 26.227C31.1375 26.2197 31.145 26.2122 31.1527 26.2045C31.6038 25.7574 32.0531 25.308 32.5023 24.8587C32.8007 24.5603 33.099 24.2618 33.3977 23.9643C33.9804 23.4673 34.0523 22.4977 33.4913 21.9496C32.6716 21.1173 31.8433 20.2937 31.0144 19.4715C31.0068 18.8935 31.0083 18.3151 31.0099 17.7358L31.0099 17.7146C31.0115 17.1149 31.013 16.5142 31.0042 15.9136C30.9936 15.2013 30.3577 14.5862 29.6458 14.5973L29.4511 14.5966C28.3542 14.5929 27.2556 14.5892 26.157 14.5998C25.7345 14.1918 25.3201 13.7752 24.9049 13.3575L24.8779 13.3303C24.4623 12.9122 24.0459 12.4933 23.6212 12.0824ZM17.767 16.2588C18.31 16.2598 18.8536 16.2609 19.4021 16.2563C19.749 16.2602 20.0836 16.1161 20.3252 15.8728C20.6847 15.5214 21.0368 15.1672 21.3882 14.8137C21.8242 14.3752 22.2591 13.9377 22.706 13.5076C23.1916 13.9989 23.6807 14.4876 24.1695 14.9761C24.4923 15.2986 24.8149 15.621 25.1364 15.944C25.3169 16.1417 25.5743 16.2738 25.8582 16.2573C26.6941 16.26 27.5306 16.2594 28.367 16.2588C28.6926 16.2585 29.0183 16.2583 29.3439 16.2582C29.3468 16.7615 29.346 17.2678 29.3453 17.7746C29.3443 18.3923 29.3434 19.0107 29.3491 19.6255C29.3421 19.9972 29.5206 20.3392 29.7777 20.5843C30.0231 20.83 30.2689 21.0753 30.5146 21.3206C31.0441 21.8491 31.5733 22.3774 32.0989 22.9095C31.6907 23.3151 31.2835 23.7228 30.8765 24.1303C30.5129 24.4944 30.1495 24.8583 29.7857 25.2202C29.5286 25.4633 29.3421 25.8023 29.3491 26.1772C29.3433 26.8089 29.3444 27.4428 29.3455 28.0762C29.3463 28.5705 29.3472 29.0643 29.3448 29.5564C28.9549 29.5569 28.5647 29.5561 28.1743 29.5553C27.4331 29.5538 26.6914 29.5524 25.9507 29.5592C25.5135 29.5501 25.1586 29.822 24.8994 30.1045C24.6281 30.3738 24.3597 30.6446 24.0916 30.915C23.63 31.3806 23.1694 31.8452 22.6969 32.2991C22.2628 31.878 21.8387 31.4517 21.4139 31.0247C21.0522 30.6611 20.69 30.297 20.3206 29.9352C20.0796 29.6893 19.7435 29.5544 19.4014 29.5572C18.9072 29.5514 18.416 29.5532 17.9257 29.555C17.2986 29.5573 16.6729 29.5596 16.0443 29.5459C16.0513 28.8601 16.0503 28.1737 16.0492 27.488C16.0486 27.0827 16.0481 26.6777 16.0491 26.2731C16.0592 25.9226 15.945 25.5588 15.6861 25.3017C15.308 24.9145 14.9243 24.5329 14.5411 24.1518C14.5122 24.123 14.4832 24.0942 14.4542 24.0654C14.0654 23.6786 13.6776 23.292 13.2963 22.8994C13.7616 22.4437 14.2222 21.9817 14.6821 21.5203C14.9852 21.2163 15.2881 20.9125 15.5918 20.6111C15.8542 20.3647 16.0502 20.0209 16.0452 19.6375C16.052 18.8361 16.0503 18.0336 16.0486 17.2316C16.048 16.9083 16.0473 16.5851 16.0472 16.2621C16.6232 16.2565 17.1948 16.2576 17.767 16.2588Z" fill="#C51D38" stroke="#C51D38" stroke-width="0.2"/>
<path d="M27.0129 17.7331L27.0125 17.7331C26.5545 17.7209 26.094 17.7231 25.6352 17.7253C25.3723 17.7266 25.1099 17.7279 24.8489 17.7264C24.6267 17.5077 24.4041 17.284 24.1811 17.0599C23.9109 16.7884 23.64 16.5162 23.3685 16.2514C23.0312 15.89 22.4091 15.8679 22.0566 16.2259C21.6958 16.5752 21.3411 16.9325 20.9873 17.289C20.8437 17.4337 20.7002 17.5782 20.5566 17.7221C20.2105 17.728 19.8644 17.7266 19.5171 17.7252L19.5165 17.7252C19.1569 17.7238 18.796 17.7223 18.4347 17.7291C17.9412 17.7204 17.5087 18.1611 17.5192 18.6521C17.51 18.9876 17.5126 19.3235 17.5152 19.6573C17.5153 19.6761 17.5154 19.6949 17.5156 19.7137C17.5182 20.0561 17.5201 20.3965 17.5088 20.7357C17.2774 21.0111 17.0194 21.2659 16.7557 21.5225C16.7339 21.5437 16.712 21.565 16.6901 21.5862C16.4403 21.829 16.1871 22.0751 15.9544 22.3392L15.9543 22.3391L15.9522 22.3417C15.6567 22.7004 15.7096 23.2605 16.0392 23.5732C16.2758 23.8167 16.5167 24.056 16.7569 24.2945L16.7941 24.3315C17.0377 24.5734 17.2804 24.8149 17.5181 25.0608C17.5176 25.1648 17.5171 25.2688 17.5166 25.3729C17.5138 25.9617 17.5109 26.5521 17.5182 27.1424C17.5011 27.6332 17.924 28.0818 18.4179 28.0834C18.8999 28.0925 19.3834 28.0904 19.8653 28.0882C20.0921 28.0872 20.3187 28.0862 20.5446 28.0863C20.7934 28.327 21.0377 28.5729 21.2827 28.8195L21.2831 28.8199C21.5368 29.0754 21.7915 29.3318 22.0517 29.5827C22.4109 29.9504 23.0433 29.9199 23.3828 29.5488C23.8687 29.0677 24.3543 28.5859 24.8317 28.0948C25.1872 28.0841 25.5432 28.0862 25.9014 28.0883L25.9023 28.0883C26.273 28.0905 26.646 28.0927 27.019 28.0804L27.019 28.0805L27.0211 28.0803C27.495 28.055 27.8883 27.6226 27.8755 27.15C27.8828 26.792 27.8816 26.4342 27.8801 26.0777L27.88 26.0467C27.8786 25.7129 27.8773 25.3803 27.8826 25.048C28.0414 24.889 28.2013 24.7303 28.3614 24.5715C28.7012 24.2343 29.0418 23.8963 29.375 23.5527C29.7231 23.206 29.7201 22.5984 29.3699 22.2557C29.0802 21.9553 28.7824 21.6596 28.4854 21.3647C28.2823 21.163 28.0796 20.9617 27.8801 20.7595C27.8779 20.4592 27.8789 20.1565 27.8799 19.8531C27.8811 19.4517 27.8824 19.0492 27.8765 18.6501C27.8801 18.1826 27.4912 17.7475 27.0129 17.7331ZM19.83 19.3907C20.1772 19.3924 20.5262 19.3942 20.8714 19.3852C21.1509 19.3858 21.3973 19.2415 21.5745 19.0563C21.7239 18.9069 21.8729 18.7575 22.0219 18.6081C22.247 18.3824 22.4719 18.1568 22.6978 17.9317C22.8704 18.1021 23.0415 18.2742 23.213 18.4467L23.2394 18.4732C23.4426 18.6777 23.6465 18.8826 23.8534 19.0846C24.0162 19.2493 24.2381 19.3762 24.4889 19.3832C24.7948 19.3935 25.1005 19.393 25.4046 19.3914C25.4392 19.3912 25.4739 19.391 25.5085 19.3908C25.7453 19.3895 25.9812 19.3882 26.2168 19.3914C26.2172 19.577 26.2161 19.7635 26.215 19.9505C26.2128 20.3307 26.2105 20.7127 26.2204 21.0928C26.2188 21.3636 26.3611 21.6003 26.5375 21.7716C26.6784 21.9112 26.8189 22.0524 26.9598 22.1939C27.1948 22.4301 27.4307 22.6672 27.6707 22.8987C27.4589 23.1261 27.2406 23.3417 27.0207 23.5589C26.8453 23.7321 26.6689 23.9064 26.4937 24.0886C26.2984 24.2781 26.2075 24.5445 26.2165 24.8078C26.2131 25.094 26.2138 25.3801 26.2147 25.6655L26.2148 25.6911C26.2155 25.936 26.2162 26.1805 26.2144 26.425C26.021 26.4258 25.8263 26.4246 25.631 26.4233C25.2482 26.4209 24.8631 26.4185 24.4806 26.4313C24.1982 26.433 23.9712 26.6033 23.8039 26.7745C23.7388 26.8396 23.6737 26.9047 23.6086 26.9698C23.3055 27.2727 23.0025 27.5756 22.7006 27.8802C22.5134 27.6992 22.3298 27.5143 22.1456 27.3284L22.1233 27.3059C21.9238 27.1046 21.7234 26.9025 21.5184 26.705C21.3467 26.5336 21.1117 26.4257 20.8625 26.4274C20.574 26.4193 20.2858 26.4211 19.9995 26.4229L19.9687 26.4231C19.7037 26.4247 19.4402 26.4261 19.1772 26.4195C19.1774 26.256 19.1785 26.0919 19.1796 25.9275C19.1824 25.5199 19.1852 25.1103 19.1733 24.7026C19.1727 24.4161 19.0035 24.1804 18.8261 24.0079C18.7287 23.9107 18.6313 23.8134 18.5339 23.7161C18.2643 23.4469 17.9945 23.1774 17.7229 22.9088C17.9016 22.7256 18.0832 22.5451 18.2655 22.3644C18.2788 22.3511 18.2922 22.3379 18.3055 22.3247C18.4977 22.1341 18.6905 21.9429 18.8802 21.7487C19.0429 21.5828 19.1718 21.3576 19.1733 21.1034C19.1843 20.7453 19.1823 20.383 19.1802 20.0226C19.179 19.8106 19.1778 19.5994 19.1793 19.3901C19.3945 19.3885 19.6119 19.3896 19.83 19.3907Z" fill="#C51D38" stroke="#C51D38" stroke-width="0.2"/>
<path d="M14.616 35.5953L14.616 35.5953L14.6133 35.5953C14.597 35.5958 14.5802 35.5961 14.563 35.5964C14.3973 35.5997 14.1944 35.6036 14.0205 35.7059C13.67 35.8792 13.5584 36.2584 13.6206 36.5859C13.6832 36.9149 13.9279 37.2264 14.3233 37.2521L14.3233 37.2523L14.3294 37.2523C17.6688 37.2652 21.0086 37.2633 24.3481 37.2615C26.5725 37.2602 28.7967 37.259 31.0207 37.2621C31.494 37.3114 31.9566 36.9168 31.9406 36.4261C31.9499 35.9368 31.4857 35.5533 31.0174 35.5973C28.4453 35.5959 25.8734 35.5962 23.3016 35.5966C20.4065 35.597 17.5114 35.5974 14.616 35.5953Z" fill="#C51D38" stroke="#C51D38" stroke-width="0.2"/>
<path d="M18.9213 38.6871L18.9213 38.6867L18.9122 38.6876C18.4483 38.7348 18.1107 39.2213 18.2149 39.6715C18.2904 40.0933 18.7092 40.374 19.1189 40.3403C21.5564 40.3412 23.9941 40.3422 26.4318 40.3393C26.8821 40.3762 27.3205 40.0163 27.3356 39.5516C27.3762 39.0578 26.9204 38.631 26.4368 38.6764C25.4956 38.679 24.5535 38.6775 23.6111 38.6761C22.0479 38.6737 20.4838 38.6713 18.9213 38.6871Z" fill="#C51D38" stroke="#C51D38" stroke-width="0.2"/>
</svg>
